<svg width="19" height="19" viewBox="0 0 19 19" fill="none" xmlns="http://www.w3.org/2000/svg">
<path d="M15.7559 2.05811H15.1835V1.43359C15.1835 0.642769 14.5595 0 13.7916 0C13.0232 0 12.3997 0.642769 12.3997 1.43359V2.05759H10.9713V1.43359C10.9713 0.642769 10.3473 0 9.57944 0C8.81155 0 8.18755 0.642769 8.18755 1.43359V2.05759H6.75918V1.43359C6.75918 0.642769 6.13517 0 5.36729 0C4.59941 0 3.97541 0.642769 3.97541 1.43359V2.05759H3.24454C2.02312 2.05759 1.02899 3.05172 1.02899 4.27314V16.7845C1.02899 18.0059 2.02312 19 3.24454 19H15.7559C16.9778 19 17.9714 18.0059 17.9714 16.7845V4.27314C17.9714 3.05224 16.9773 2.05811 15.7559 2.05811ZM13.1817 1.43359C13.1817 1.07441 13.4553 0.781957 13.7916 0.781957C14.1283 0.781957 14.4015 1.07441 14.4015 1.43359V3.9859C14.4015 4.34508 14.1283 4.63753 13.7916 4.63753C13.4553 4.63753 13.1817 4.34508 13.1817 3.9859V1.43359ZM8.96951 1.43359C8.96951 1.07441 9.24319 0.781957 9.57944 0.781957C9.91568 0.781957 10.1894 1.07441 10.1894 1.43359V3.9859C10.1894 4.34508 9.91568 4.63753 9.57944 4.63753C9.24319 4.63753 8.96951 4.34508 8.96951 3.9859V1.43359ZM4.75684 1.43359C4.75684 1.07441 5.03053 0.781957 5.36677 0.781957C5.70301 0.781957 5.9767 1.07441 5.9767 1.43359V3.9859C5.9767 4.34508 5.70301 4.63753 5.36677 4.63753C5.03053 4.63753 4.75684 4.34508 4.75684 3.9859V1.43359ZM16.6681 16.785C16.6681 17.288 16.2589 17.6973 15.7559 17.6973H3.24454C2.74148 17.6973 2.33225 17.288 2.33225 16.785V5.31627H16.6681V16.785Z" fill="#FFD600"/>
<path d="M5.90058 7.62463H3.50519V9.75625H5.90058V7.62463Z" fill="#FFD600"/>
<path d="M9.09825 7.62463H6.70233V9.75625H9.09825V7.62463Z" fill="#FFD600"/>
<path d="M12.2975 7.62463H9.9021V9.75625H12.2975V7.62463Z" fill="#FFD600"/>
<path d="M15.4952 7.62463H13.0992V9.75625H15.4952V7.62463Z" fill="#FFD600"/>
<path d="M5.90058 10.4699H3.50519V12.6H5.90058V10.4699Z" fill="#FFD600"/>
<path d="M9.09825 10.4699H6.70233V12.6H9.09825V10.4699Z" fill="#FFD600"/>
<path d="M12.2975 10.4699H9.9021V12.6H12.2975V10.4699Z" fill="#FFD600"/>
<path d="M15.4952 10.4699H13.0992V12.6H15.4952V10.4699Z" fill="#FFD600"/>
<path d="M5.90058 13.3141H3.50519V15.4441H5.90058V13.3141Z" fill="#FFD600"/>
<path d="M9.09825 13.3141H6.70233V15.4441H9.09825V13.3141Z" fill="#FFD600"/>
<path d="M12.2975 13.3141H9.9021V15.4441H12.2975V13.3141Z" fill="#FFD600"/>
<path d="M15.4952 13.3141H13.0992V15.4441H15.4952V13.3141Z" fill="#FFD600"/>
</svg>
