<svg width="40" height="40" viewBox="0 0 40 40" fill="none" xmlns="http://www.w3.org/2000/svg">
<circle cx="20" cy="20" r="15" fill="#151515"/>
<circle cx="20" cy="20" r="19.5" stroke="#151515"/>
<path d="M20 22.3996C21.3255 22.3996 22.4 21.3251 22.4 19.9996C22.4 18.6741 21.3255 17.5996 20 17.5996C18.6745 17.5996 17.6 18.6741 17.6 19.9996C17.6 21.3251 18.6745 22.3996 20 22.3996Z" fill="#FFD600"/>
<path d="M17.75 12.5L16.3775 14H14C13.175 14 12.5 14.675 12.5 15.5V24.5C12.5 25.325 13.175 26 14 26H26C26.825 26 27.5 25.325 27.5 24.5V15.5C27.5 14.675 26.825 14 26 14H23.6225L22.25 12.5H17.75ZM20 23.75C17.93 23.75 16.25 22.07 16.25 20C16.25 17.93 17.93 16.25 20 16.25C22.07 16.25 23.75 17.93 23.75 20C23.75 22.07 22.07 23.75 20 23.75Z" fill="#FFD600"/>
</svg>
