<svg width="24" height="24" viewBox="0 0 24 24" fill="none" xmlns="http://www.w3.org/2000/svg">
<path d="M13.5064 6.02496H9.74073C9.35242 6.02496 9.03761 6.33978 9.03761 6.72809V12.0499H8.2345C7.84618 12.0499 7.53137 12.3648 7.53137 12.7531C7.53137 13.1414 7.84618 13.4562 8.2345 13.4562H9.03761V15.0625H8.2345C7.84618 15.0625 7.53137 15.3773 7.53137 15.7656C7.53137 16.1539 7.84618 16.4687 8.2345 16.4687H9.03761V18.025C9.03761 18.4133 9.35242 18.7281 9.74073 18.7281C10.129 18.7281 10.4439 18.4133 10.4439 18.025V16.4687H13.5064C13.8947 16.4687 14.2095 16.1539 14.2095 15.7656C14.2095 15.3773 13.8947 15.0625 13.5064 15.0625H10.4439V13.4562H13.5064C15.5552 13.4562 17.222 11.7894 17.222 9.74056C17.222 7.64112 15.5118 6.02496 13.5064 6.02496ZM13.5064 12.0499H10.4439V7.43121H13.5064C14.7721 7.43121 15.8158 8.45215 15.8158 9.7406C15.8157 11.014 14.7798 12.0499 13.5064 12.0499Z" fill="#FFD600"/>
<path d="M12 0C5.38317 0 0 5.38317 0 12C0 18.6168 5.38317 24 12 24C18.6168 24 24 18.6168 24 12C24 5.38317 18.6168 0 12 0ZM12 22.5938C6.15858 22.5938 1.40625 17.8414 1.40625 12C1.40625 6.15858 6.15858 1.40625 12 1.40625C17.8414 1.40625 22.5938 6.15858 22.5938 12C22.5938 17.8414 17.8414 22.5938 12 22.5938Z" fill="#FFD600"/>
</svg>
