<svg width="19" height="19" viewBox="0 0 19 19" fill="none" xmlns="http://www.w3.org/2000/svg">
<path d="M19 3.35294V0H15.6471V1.11765H3.35294V0H0V3.35294H1.11765V15.6471H0V19H3.35294V17.8824H15.6471V19H19V15.6471H17.8824V3.35294H19ZM16.7647 15.6471H15.6471V16.7647H3.35294V15.6471H2.23529V3.35294H3.35294V2.23529H15.6471V3.35294H16.7647V15.6471Z" fill="#FFD600"/>
<path d="M4.75714 8.70947L8.70805 4.75856L9.49823 5.54874L5.54732 9.49965L4.75714 8.70947Z" fill="#FFD600"/>
<path d="M9.49786 13.4514L13.4488 9.50052L14.239 10.2907L10.288 14.2416L9.49786 13.4514Z" fill="#FFD600"/>
<path d="M5.94226 12.2656L12.2637 5.94422L13.0538 6.73439L6.73244 13.0558L5.94226 12.2656Z" fill="#FFD600"/>
</svg>
