<svg width="19" height="19" viewBox="0 0 19 19" fill="none" xmlns="http://www.w3.org/2000/svg">
<path d="M18.0345 3.74585H14.5636C14.0303 3.74585 13.5982 4.17771 13.5982 4.71116V7.21701H11.0924C10.5589 7.21701 10.1267 7.64872 10.1267 8.18221V10.6882H7.62088C7.08743 10.6882 6.65542 11.1205 6.65542 11.6535V14.2802H4.02929C3.77304 14.2802 3.52748 14.3818 3.3465 14.5626C3.16537 14.7435 3.06378 14.9902 3.06378 15.2454L3.06409 17.265C3.06409 17.799 3.49642 18.2308 4.02956 18.2308H18.0345C18.568 18.2308 19 17.799 19 17.265V4.71112C19 4.17771 18.568 3.74585 18.0345 3.74585Z" fill="#FFD600"/>
<path d="M12.9537 0.963689C12.7052 0.708968 12.2982 0.704073 12.0436 0.951901C7.91488 4.97387 3.98703 8.90219 0.188613 12.7003C0.0677534 12.8211 0 12.9853 0 13.1557V17.5604C0 17.9154 0.28805 18.2042 0.643618 18.2042C0.998833 18.2042 1.28739 17.9155 1.28739 17.5604V13.422C5.02417 9.68511 8.88748 5.8238 12.9417 1.87378C13.1961 1.62599 13.2013 1.21825 12.9537 0.963689Z" fill="#FFD600"/>
</svg>
