<svg width="23" height="23" viewBox="0 0 23 23" fill="none" xmlns="http://www.w3.org/2000/svg">
<path d="M22.4243 18.091C22.6586 17.8567 22.6586 17.4768 22.4243 17.2425L18.6059 13.4241C18.3716 13.1898 17.9917 13.1898 17.7574 13.4241C17.523 13.6584 17.523 14.0383 17.7574 14.2726L21.1515 17.6667L17.7574 21.0609C17.523 21.2952 17.523 21.6751 17.7574 21.9094C17.9917 22.1437 18.3716 22.1437 18.6059 21.9094L22.4243 18.091ZM2 18.2667H22V17.0667H2V18.2667Z" fill="#FFD600"/>
<path d="M5.75761 0.575735C5.52329 0.341421 5.14339 0.341421 4.90908 0.575735L1.0907 4.39411C0.856387 4.62843 0.856387 5.00833 1.0907 5.24264C1.32502 5.47696 1.70492 5.47696 1.93923 5.24264L5.33334 1.84853L8.72746 5.24264C8.96177 5.47696 9.34167 5.47696 9.57598 5.24264C9.8103 5.00833 9.8103 4.62843 9.57598 4.39411L5.75761 0.575735ZM5.93334 21L5.93334 1L4.73334 1L4.73334 21L5.93334 21Z" fill="#FFD600"/>
<path d="M9.35976 13.2065C9.35976 13.2065 9.35088 13.4301 9.56924 13.4301C9.84089 13.4301 12.09 13.4271 12.09 13.4271L12.0937 11.3616C12.0937 11.3616 12.0581 11.0211 12.3886 11.0211H13.4345C13.8253 11.0211 13.8013 11.3616 13.8013 11.3616L13.7968 13.4205C13.7968 13.4205 15.9293 13.4205 16.2643 13.4205C16.5415 13.4205 16.5289 13.1422 16.5289 13.1422V9.33423L13.0515 6.24097L9.35976 9.33423V13.2065Z" fill="#FFD600"/>
<path d="M8 9.04614C8 9.04614 8.31347 9.62386 8.99704 9.04614L13.0822 5.59018L16.9123 9.02467C17.7036 9.59536 18 9.02467 18 9.02467L13.0822 4.56982L8 9.04614Z" fill="#FFD600"/>
<path d="M16.8194 5.58203H15.8342L15.8383 6.7767L16.8194 7.60905V5.58203Z" fill="#FFD600"/>
</svg>
