<svg width="46" height="46" viewBox="0 0 46 46" fill="none" xmlns="http://www.w3.org/2000/svg">
<path d="M9.2 6.8999V9.96657H6.13333V13.0332H3.06667V16.0999H0V36.0332H28.3667V34.4999H1.53333V17.6332H35.2667V18.3999H36.8V16.0999H4.6V14.5666H38.3333V18.3999H39.8667V13.0332H7.66667V11.4999H41.4V18.3999H42.9333V9.96657H10.7333V8.43324H44.4667V19.9332H46V6.8999H9.2Z" fill="#151515"/>
<path d="M14.5667 26.0667C14.5667 28.1837 16.2831 29.9001 18.4 29.9001C20.517 29.9001 22.2333 28.1837 22.2333 26.0667C22.2333 23.9498 20.517 22.2334 18.4 22.2334C16.2838 22.236 14.5693 23.9505 14.5667 26.0667ZM20.7 26.0667C20.7 27.3369 19.6702 28.3667 18.4 28.3667C17.1298 28.3667 16.1 27.3369 16.1 26.0667C16.1 24.7966 17.1298 23.7667 18.4 23.7667C19.6702 23.7667 20.7 24.7966 20.7 26.0667Z" fill="#151515"/>
<path d="M23.7667 25.2998H26.8333V26.8331H23.7667V25.2998Z" fill="#151515"/>
<path d="M9.96667 25.2998H13.0333V26.8331H9.96667V25.2998Z" fill="#151515"/>
<path d="M4.60001 28.4432V23.6898C6.10452 23.3802 7.28035 22.2043 7.58994 20.6998H29.1333V19.1665H6.13335V19.9332C6.13335 21.2033 5.10351 22.2332 3.83335 22.2332H3.06668V29.8998H3.83335C5.10351 29.8998 6.13335 30.9297 6.13335 32.1998V32.9665H28.3667V31.4332H7.58994C7.28035 29.9287 6.10452 28.7528 4.60001 28.4432Z" fill="#151515"/>
<path d="M37.5667 19.1665C33.5035 19.1665 29.1333 20.1263 29.1333 22.2332V25.2998C29.1449 25.7322 29.3276 26.1425 29.6417 26.4397C29.3242 26.7433 29.1416 27.1607 29.1333 27.5998V30.6665C29.1449 31.0989 29.3276 31.5092 29.6417 31.8064C29.3242 32.11 29.1416 32.5274 29.1333 32.9665V36.0332C29.1333 38.14 33.5035 39.0998 37.5667 39.0998C41.6298 39.0998 46 38.14 46 36.0332V32.9665C45.9918 32.5274 45.8091 32.11 45.4916 31.8064C45.8057 31.5092 45.9884 31.0989 46 30.6665V27.5998C45.9918 27.1607 45.8091 26.7433 45.4916 26.4397C45.8057 26.1425 45.9884 25.7322 46 25.2998V22.2332C46 20.1263 41.6298 19.1665 37.5667 19.1665V19.1665ZM37.5667 20.6998C42.0132 20.6998 44.3132 21.7986 44.4667 22.2332C44.406 22.375 43.864 22.904 41.9948 23.3195C41.0271 23.534 40.0437 23.6688 39.054 23.7227C38.0645 23.7834 37.0721 23.7834 36.0824 23.7227C35.0907 23.6688 34.1051 23.5329 33.1355 23.3173C31.2286 22.8931 30.7063 22.3503 30.6689 22.244V22.2399C30.7887 21.8154 33.0838 20.6998 37.5667 20.6998V20.6998ZM42.9333 26.1339V24.6604C43.4612 24.5246 43.9748 24.3381 44.4667 24.1038V25.2905C44.4116 25.4855 43.8969 25.8236 42.9333 26.1339ZM30.6667 25.2905V24.1038C31.1586 24.3385 31.6722 24.5246 32.2 24.6604V26.1339C31.2364 25.8236 30.7217 25.4855 30.6667 25.2905ZM33.7333 24.997C34.2192 25.0797 34.7306 25.146 35.2667 25.1954V26.7287C34.7018 26.6737 34.1934 26.5985 33.7333 26.5135V24.997ZM36.8 25.277C37.0561 25.2845 38.0773 25.2845 38.3333 25.277V26.8208C38.0848 26.8287 37.0486 26.8287 36.8 26.8208V25.277ZM39.8667 25.1954C40.4042 25.1445 40.9156 25.0782 41.4 24.997V26.5112C40.9399 26.5962 40.4316 26.6715 39.8667 26.7265V25.1954ZM42.9333 31.5006V30.0271C43.4612 29.8912 43.9748 29.7048 44.4667 29.4705V30.6571C44.4116 30.8522 43.8969 31.1902 42.9333 31.5006ZM41.4 31.8779C40.9399 31.9629 40.4316 32.0381 39.8667 32.0931V30.5598C40.4042 30.5089 40.9156 30.4426 41.4 30.3614V31.8779ZM38.3333 32.1845C38.0848 32.1924 37.0486 32.1924 36.8 32.1845V30.6437C37.0561 30.6512 38.0773 30.6512 38.3333 30.6437V32.1845ZM35.2667 32.0902C34.7018 32.0351 34.1934 31.9599 33.7333 31.8749V30.3637C34.2192 30.4464 34.7306 30.5126 35.2667 30.5621V32.0902ZM32.2 31.4976C31.2364 31.1872 30.7217 30.8488 30.6667 30.6542V29.4705C31.1586 29.7052 31.6722 29.8912 32.2 30.0271V31.4976ZM30.6667 36.0208V34.8371C31.1586 35.0718 31.6722 35.2579 32.2 35.3938V36.8672C31.2364 36.5569 30.7217 36.2188 30.6667 36.0238V36.0208ZM35.2667 37.4568C34.7018 37.4018 34.1934 37.3265 33.7333 37.2416V35.7303C34.2192 35.8131 34.7306 35.8793 35.2667 35.9287V37.4568ZM36.8 37.5512V36.0103C37.0561 36.0178 38.0773 36.0178 38.3333 36.0103V37.5542C38.0848 37.562 37.0486 37.562 36.8 37.5542V37.5512ZM41.4 37.2446C40.9399 37.3295 40.4316 37.4048 39.8667 37.4598V35.9265C40.4042 35.8756 40.9156 35.8093 41.4 35.7281V37.2446ZM42.9333 36.8672V35.3938C43.4612 35.2579 43.9748 35.0715 44.4667 34.8371V36.0238C44.4116 36.2188 43.8969 36.5569 42.9333 36.8672V36.8672ZM44.4667 32.9571C44.433 33.0814 43.9138 33.6272 41.9918 34.0551C41.0242 34.2696 40.0407 34.4048 39.051 34.4583C38.0612 34.5189 37.0688 34.5189 36.0794 34.4583C35.0874 34.4044 34.1017 34.2689 33.1321 34.0529C31.2256 33.6287 30.7034 33.0859 30.6659 32.9796V32.9759C30.743 32.8478 30.8523 32.7419 30.9826 32.6689C33.0913 33.4329 35.3247 33.7938 37.5667 33.7332C39.8083 33.7949 42.0413 33.4352 44.15 32.6723C44.2728 32.7449 44.3806 32.8407 44.4667 32.9542V32.9571ZM44.4667 27.5905C44.433 27.7148 43.9138 28.2606 41.9918 28.6884C41.0242 28.9029 40.0407 29.0381 39.051 29.0916C38.0612 29.1523 37.0688 29.1523 36.0794 29.0916C35.0874 29.0377 34.1017 28.9022 33.1321 28.6862C31.2256 28.2621 30.7034 27.7193 30.6659 27.6129V27.6092C30.743 27.4812 30.8523 27.3752 30.9826 27.3022C33.0913 28.0663 35.3247 28.4271 37.5667 28.3665C39.8083 28.4283 42.0413 28.0685 44.15 27.3056C44.2728 27.3782 44.3806 27.4741 44.4667 27.5875V27.5905Z" fill="#FFD600"/>
</svg>
