<svg width="46" height="46" viewBox="0 0 46 46" fill="none" xmlns="http://www.w3.org/2000/svg">
<path d="M40.9688 1.4375H10.7812C9.82848 1.43864 8.91506 1.81763 8.24135 2.49135C7.56763 3.16506 7.18864 4.07848 7.1875 5.03125V17.7294C7.1875 17.92 7.26323 18.1028 7.39802 18.2376C7.53281 18.3724 7.71563 18.4482 7.90625 18.4482C8.09687 18.4482 8.27969 18.3724 8.41448 18.2376C8.54927 18.1028 8.625 17.92 8.625 17.7294V5.03125C8.625 4.45938 8.85218 3.91093 9.25655 3.50655C9.66093 3.10218 10.2094 2.875 10.7812 2.875H38.1124C37.6368 3.4934 37.3776 4.25107 37.375 5.03125V13.22C37.375 13.4106 37.4507 13.5934 37.5855 13.7282C37.7203 13.863 37.9031 13.9387 38.0938 13.9387C38.2844 13.9387 38.4672 13.863 38.602 13.7282C38.7368 13.5934 38.8125 13.4106 38.8125 13.22V8.625H43.8438C44.0344 8.625 44.2172 8.54927 44.352 8.41448C44.4868 8.27969 44.5625 8.09687 44.5625 7.90625V5.03125C44.5614 4.07848 44.1824 3.16506 43.5087 2.49135C42.8349 1.81763 41.9215 1.43864 40.9688 1.4375V1.4375ZM43.125 7.1875H38.8125V5.03125C38.8125 4.45938 39.0397 3.91093 39.4441 3.50655C39.8484 3.10218 40.3969 2.875 40.9688 2.875C41.5406 2.875 42.0891 3.10218 42.4934 3.50655C42.8978 3.91093 43.125 4.45938 43.125 5.03125V7.1875Z" fill="#151515"/>
<path d="M38.0938 30.4692C37.9031 30.4692 37.7203 30.545 37.5855 30.6798C37.4507 30.8145 37.375 30.9974 37.375 31.188V40.9687C37.375 41.5406 37.1478 42.0891 36.7434 42.4934C36.3391 42.8978 35.7906 43.125 35.2188 43.125C34.6469 43.125 34.0984 42.8978 33.6941 42.4934C33.2897 42.0891 33.0625 41.5406 33.0625 40.9687V39.5312C33.0625 39.3406 32.9868 39.1578 32.852 39.023C32.7172 38.8882 32.5344 38.8125 32.3438 38.8125H2.15625C1.96563 38.8125 1.78281 38.8882 1.64802 39.023C1.51323 39.1578 1.4375 39.3406 1.4375 39.5312V40.9687C1.43864 41.9215 1.81763 42.8349 2.49135 43.5086C3.16506 44.1824 4.07848 44.5613 5.03125 44.5625H35.2188C36.1715 44.5613 37.0849 44.1824 37.7587 43.5086C38.4324 42.8349 38.8114 41.9215 38.8125 40.9687V31.188C38.8125 30.9974 38.7368 30.8145 38.602 30.6798C38.4672 30.545 38.2844 30.4692 38.0938 30.4692ZM5.03125 43.125C4.45938 43.125 3.91093 42.8978 3.50655 42.4934C3.10218 42.0891 2.875 41.5406 2.875 40.9687V40.25H31.625V40.9687C31.624 41.7465 31.8763 42.5034 32.3438 43.125H5.03125Z" fill="#151515"/>
<path d="M2.15623 25.8751H15.8125V34.5001H13.6562V30.9064C13.6562 30.3345 13.4291 29.786 13.0247 29.3817C12.6203 28.9773 12.0719 28.7501 11.5 28.7501H10.0625C9.4906 28.7501 8.94215 28.9773 8.53778 29.3817C8.1334 29.786 7.90623 30.3345 7.90623 30.9064V34.5001H5.74998V28.0314C5.74998 27.8407 5.67425 27.6579 5.53946 27.5231C5.40467 27.3883 5.22185 27.3126 5.03123 27.3126C4.8406 27.3126 4.65779 27.3883 4.523 27.5231C4.3882 27.6579 4.31248 27.8407 4.31248 28.0314V35.2189C4.31248 35.4095 4.3882 35.5923 4.523 35.7271C4.65779 35.8619 4.8406 35.9376 5.03123 35.9376H16.5312C16.7219 35.9376 16.9047 35.8619 17.0395 35.7271C17.1743 35.5923 17.25 35.4095 17.25 35.2189V25.8751H19.4062C19.5605 25.8751 19.7107 25.8255 19.8346 25.7336C19.9585 25.6417 20.0495 25.5124 20.0943 25.3647C20.139 25.2171 20.135 25.059 20.083 24.9138C20.0309 24.7686 19.9335 24.6439 19.8051 24.5584L11.1801 18.8084C11.062 18.7296 10.9232 18.6875 10.7812 18.6875C10.6392 18.6875 10.5004 18.7296 10.3823 18.8084L1.75732 24.5584C1.62897 24.6439 1.53156 24.7686 1.47949 24.9138C1.42742 25.059 1.42346 25.2171 1.46819 25.3647C1.51292 25.5124 1.60396 25.6417 1.72787 25.7336C1.85177 25.8255 2.00196 25.8751 2.15623 25.8751V25.8751ZM9.34373 34.5001V30.9064C9.34373 30.7157 9.41945 30.5329 9.55424 30.3981C9.68904 30.2633 9.87185 30.1876 10.0625 30.1876H11.5C11.6906 30.1876 11.8734 30.2633 12.0082 30.3981C12.143 30.5329 12.2187 30.7157 12.2187 30.9064V34.5001H9.34373ZM10.7812 20.2689L17.0344 24.4376H4.5281L10.7812 20.2689Z" fill="#FFD600"/>
<path d="M43.4844 12.5064C43.239 12.3647 42.9681 12.2727 42.6871 12.2357C42.4062 12.1987 42.1207 12.2175 41.847 12.2909C41.5734 12.3644 41.3168 12.491 41.0921 12.6637C40.8674 12.8363 40.6789 13.0515 40.5375 13.297L39.4594 15.1658C39.2943 15.0705 39.0981 15.0447 38.914 15.094C38.7298 15.1433 38.5729 15.2638 38.4775 15.4289L37.3994 17.2976L36.777 16.9382C36.5316 16.7965 36.2607 16.7045 35.9798 16.6675C35.6988 16.6306 35.4134 16.6493 35.1397 16.7227C34.866 16.7962 34.6095 16.9228 34.3848 17.0955C34.1601 17.2681 33.9716 17.4833 33.8301 17.7289L30.9551 22.7091C30.8598 22.8743 30.834 23.0705 30.8834 23.2547C30.9328 23.4389 31.0534 23.5959 31.2185 23.6912C31.3837 23.7866 31.58 23.8124 31.7642 23.763C31.9484 23.7136 32.1054 23.593 32.2007 23.4278L35.0757 18.4476C35.1711 18.2827 35.3282 18.1624 35.5123 18.1132C35.6964 18.064 35.8925 18.0899 36.0575 18.1853L36.68 18.5446L29.8518 30.371C29.8468 30.3796 29.8468 30.3904 29.8425 30.399C29.8083 30.4632 29.7841 30.5323 29.7706 30.6038C29.7706 30.6211 29.7627 30.6376 29.7613 30.6556C29.7598 30.6735 29.7555 30.6764 29.7548 30.6872L29.6125 33.1741C29.5896 33.623 29.7298 34.0651 30.0071 34.419L29.5679 35.1794C29.4726 35.3446 29.4468 35.5408 29.4962 35.725C29.5456 35.9092 29.6662 36.0663 29.8314 36.1616C29.9965 36.2569 30.1928 36.2827 30.377 36.2333C30.5612 36.1839 30.7182 36.0633 30.8135 35.8981L31.252 35.1391C31.3312 35.1547 31.4114 35.1652 31.492 35.1708C31.8605 35.1701 32.2207 35.0611 32.5277 34.8574L34.6121 33.4824C34.6319 33.4677 34.6507 33.4516 34.6682 33.4343C34.6913 33.4169 34.7131 33.3979 34.7336 33.3775C34.7581 33.3508 34.7804 33.3222 34.8004 33.292C34.8126 33.274 34.8285 33.2603 34.8392 33.2416L38.6163 26.701C38.7116 26.5358 38.7374 26.3396 38.688 26.1554C38.6386 25.9712 38.518 25.8142 38.3528 25.7188C38.1877 25.6235 37.9914 25.5977 37.8072 25.6471C37.623 25.6965 37.466 25.8171 37.3707 25.9823L33.9537 31.9019L32.7089 31.1831L31.464 30.4644L37.9327 19.2605L40.4218 20.698L38.8082 23.4925C38.7129 23.6577 38.6871 23.854 38.7365 24.0382C38.7859 24.2223 38.9064 24.3794 39.0716 24.4747C39.2368 24.57 39.433 24.5958 39.6172 24.5464C39.8014 24.497 39.9585 24.3764 40.0538 24.2113L41.6616 21.4189L42.284 21.7783C42.3658 21.8262 42.4563 21.8575 42.5502 21.8704C42.6441 21.8832 42.7396 21.8773 42.8313 21.8531C42.9229 21.8289 43.0088 21.7868 43.0841 21.7292C43.1594 21.6716 43.2226 21.5997 43.27 21.5176C43.3174 21.4355 43.3481 21.3449 43.3603 21.2509C43.3725 21.1569 43.366 21.0614 43.3412 20.9699C43.3164 20.8784 43.2737 20.7928 43.2156 20.7179C43.1575 20.643 43.0852 20.5803 43.0028 20.5334L42.3804 20.174L43.4585 18.3053C43.506 18.2236 43.5368 18.1333 43.5494 18.0396C43.5619 17.946 43.5559 17.8507 43.5316 17.7594C43.5073 17.6681 43.4652 17.5824 43.4078 17.5074C43.3503 17.4323 43.2787 17.3694 43.1969 17.322L44.275 15.4533C44.4167 15.2079 44.5087 14.937 44.5457 14.6561C44.5827 14.3751 44.5639 14.0897 44.4905 13.816C44.417 13.5423 44.2904 13.2858 44.1177 13.0611C43.9451 12.8364 43.7299 12.6479 43.4844 12.5064V12.5064ZM31.7321 33.6578C31.6631 33.7031 31.5829 33.7284 31.5004 33.7308C31.4179 33.7331 31.3364 33.7125 31.2649 33.6712C31.1935 33.6299 31.1349 33.5695 31.0958 33.4968C31.0567 33.4241 31.0386 33.342 31.0435 33.2596L31.124 31.9299L32.8469 32.9232L31.7321 33.6578ZM41.7831 14.0158C41.8785 13.8508 42.0355 13.7305 42.2197 13.6813C42.4038 13.6321 42.5999 13.6581 42.7649 13.7535C42.9298 13.8488 43.0501 14.0056 43.0994 14.1896C43.1487 14.3735 43.123 14.5695 43.0279 14.7345L41.9498 16.6033L41.3274 16.2439L40.7042 15.8845L41.7831 14.0158ZM38.6457 18.0142L39.3645 16.7693L41.8535 18.2068L41.1348 19.4517L38.6457 18.0142Z" fill="#151515"/>
<path d="M30.1875 9.34375V6.46875C30.1875 6.27813 30.1118 6.09531 29.977 5.96052C29.8422 5.82573 29.6594 5.75 29.4687 5.75H16.5312C16.3406 5.75 16.1578 5.82573 16.023 5.96052C15.8882 6.09531 15.8125 6.27813 15.8125 6.46875V9.34375C15.8125 9.53437 15.8882 9.71719 16.023 9.85198C16.1578 9.98677 16.3406 10.0625 16.5312 10.0625H29.4687C29.6594 10.0625 29.8422 9.98677 29.977 9.85198C30.1118 9.71719 30.1875 9.53437 30.1875 9.34375ZM28.75 8.625H17.25V7.1875H28.75V8.625Z" fill="#151515"/>
<path d="M19.4062 12.2188C19.2156 12.2188 19.0328 12.2945 18.898 12.4293C18.7632 12.5641 18.6875 12.7469 18.6875 12.9375C18.6875 13.1281 18.7632 13.3109 18.898 13.4457C19.0328 13.5805 19.2156 13.6562 19.4062 13.6562H26.5938C26.7844 13.6562 26.9672 13.5805 27.102 13.4457C27.2368 13.3109 27.3125 13.1281 27.3125 12.9375C27.3125 12.7469 27.2368 12.5641 27.102 12.4293C26.9672 12.2945 26.7844 12.2188 26.5938 12.2188H19.4062Z" fill="#151515"/>
<path d="M16.5312 17.25H29.4687C29.6594 17.25 29.8422 17.1743 29.977 17.0395C30.1118 16.9047 30.1875 16.7219 30.1875 16.5312C30.1875 16.3406 30.1118 16.1578 29.977 16.023C29.8422 15.8882 29.6594 15.8125 29.4687 15.8125H16.5312C16.3406 15.8125 16.1578 15.8882 16.023 16.023C15.8882 16.1578 15.8125 16.3406 15.8125 16.5312C15.8125 16.7219 15.8882 16.9047 16.023 17.0395C16.1578 17.1743 16.3406 17.25 16.5312 17.25Z" fill="#151515"/>
<path d="M16.5312 20.8438H30.1875C30.3781 20.8438 30.5609 20.768 30.6957 20.6332C30.8305 20.4984 30.9062 20.3156 30.9062 20.125C30.9062 19.9344 30.8305 19.7516 30.6957 19.6168C30.5609 19.482 30.3781 19.4062 30.1875 19.4062H16.5312C16.3406 19.4062 16.1578 19.482 16.023 19.6168C15.8882 19.7516 15.8125 19.9344 15.8125 20.125C15.8125 20.3156 15.8882 20.4984 16.023 20.6332C16.1578 20.768 16.3406 20.8438 16.5312 20.8438Z" fill="#151515"/>
<path d="M28.75 23H22.2812C22.0906 23 21.9078 23.0757 21.773 23.2105C21.6382 23.3453 21.5625 23.5281 21.5625 23.7188C21.5625 23.9094 21.6382 24.0922 21.773 24.227C21.9078 24.3618 22.0906 24.4375 22.2812 24.4375H28.75C28.9406 24.4375 29.1234 24.3618 29.2582 24.227C29.393 24.0922 29.4688 23.9094 29.4688 23.7188C29.4688 23.5281 29.393 23.3453 29.2582 23.2105C29.1234 23.0757 28.9406 23 28.75 23V23Z" fill="#151515"/>
<path d="M29.4688 28.0312C29.4688 27.8406 29.393 27.6578 29.2582 27.523C29.1234 27.3882 28.9406 27.3125 28.75 27.3125H19.4062C19.2156 27.3125 19.0328 27.3882 18.898 27.523C18.7632 27.6578 18.6875 27.8406 18.6875 28.0312C18.6875 28.2219 18.7632 28.4047 18.898 28.5395C19.0328 28.6743 19.2156 28.75 19.4062 28.75H28.75C28.9406 28.75 29.1234 28.6743 29.2582 28.5395C29.393 28.4047 29.4688 28.2219 29.4688 28.0312Z" fill="#151515"/>
<path d="M20.8438 30.9062C20.6531 30.9062 20.4703 30.982 20.3355 31.1168C20.2007 31.2516 20.125 31.4344 20.125 31.625C20.125 31.8156 20.2007 31.9984 20.3355 32.1332C20.4703 32.268 20.6531 32.3438 20.8438 32.3438H25.875C26.0656 32.3438 26.2484 32.268 26.3832 32.1332C26.518 31.9984 26.5938 31.8156 26.5938 31.625C26.5938 31.4344 26.518 31.2516 26.3832 31.1168C26.2484 30.982 26.0656 30.9062 25.875 30.9062H20.8438Z" fill="#151515"/>
</svg>
