<svg width="46" height="46" viewBox="0 0 46 46" fill="none" xmlns="http://www.w3.org/2000/svg">
<path d="M16.7347 28.8159C16.4962 28.2441 15.9361 27.8722 15.3165 27.874C14.6965 27.8758 14.1389 28.2509 13.9036 28.8241L11.9172 33.7501L11.3325 35.1568C10.7802 36.497 10.8915 38.0186 11.6319 39.2646C12.3107 40.4311 13.5054 41.2033 14.8477 41.343C15.0049 41.3594 15.1628 41.3676 15.3208 41.3676C15.4783 41.3676 15.6359 41.3594 15.7924 41.3434C17.1354 41.204 18.3312 40.4318 19.01 39.2646C19.7508 38.0189 19.8617 36.497 19.3094 35.1568L16.7347 28.8159ZM17.6934 38.4802C17.2606 39.2296 16.4958 39.7273 15.6356 39.8193C15.4259 39.8411 15.2145 39.8411 15.0049 39.8193C14.145 39.727 13.381 39.2293 12.9482 38.4802C12.4544 37.651 12.3799 36.6374 12.7471 35.7447L15.3176 29.397L17.3101 34.3383L17.8948 35.7447C18.262 36.6374 18.1875 37.651 17.6934 38.4802V38.4802Z" fill="#FFD600"/>
<path d="M4.59619 26.0469C4.17336 26.0469 3.83038 26.3898 3.83038 26.813V27.5792C3.83038 28.002 4.17336 28.345 4.59619 28.345C5.01939 28.345 5.36236 28.002 5.36236 27.5792V26.813C5.36236 26.3898 5.01939 26.0469 4.59619 26.0469V26.0469Z" fill="#151515"/>
<path d="M4.59617 29.877C4.17335 29.877 3.83038 30.2199 3.83038 30.6431V40.6015C3.83038 41.0247 4.17335 41.3677 4.59617 41.3677C5.01935 41.3677 5.36231 41.0247 5.36231 40.6015V30.6431C5.36231 30.2199 5.01935 29.877 4.59617 29.877V29.877Z" fill="#151515"/>
<path d="M41.6805 24.8796C39.8038 23.9142 38.1802 23.0582 37.5924 21.1733L41.0855 17.6802C41.3728 17.3929 41.5343 17.0032 41.5343 16.5968C41.5343 16.1904 41.3728 15.8007 41.0855 15.5134L36.2109 10.6381C35.8537 10.2808 35.3431 10.1233 34.8465 10.2163L28.1537 0.655379C27.8938 0.284251 27.4835 0.046814 27.0321 0.00724123C26.5808 -0.031975 26.1355 0.129881 25.815 0.450385L17.1193 9.14606C16.6373 9.63056 16.5332 10.3753 16.8634 10.9735L17.9889 12.9999L15.9628 11.8737C15.3642 11.5443 14.6202 11.6488 14.135 12.1301L11.9396 14.3258C11.8447 14.4231 11.7631 14.5329 11.6975 14.652C8.36447 14.8349 0 15.5743 0 18.3865V21.4507C0.0249559 22.0026 0.309096 22.5099 0.766143 22.8201V42.2777C0.770778 42.3212 0.779334 42.364 0.792169 42.4061L0.793951 42.4164C0.80429 42.4849 0.823898 42.5515 0.852063 42.6143C1.77079 45.2429 10.2137 45.9641 15.3207 45.9641C20.7269 45.9641 29.8757 45.1573 29.8757 42.1337V28.89L32.6625 26.1032C34.547 26.6911 35.4034 28.3143 36.3688 30.1913C36.8729 31.274 37.5029 32.2933 38.2455 33.2284C38.92 34.0131 39.8933 34.4773 40.9272 34.5079C40.9742 34.5094 41.0213 34.5104 41.0683 34.5104C42.0944 34.5094 43.0784 34.1022 43.8046 33.3774L44.8673 32.3154C45.6263 31.5542 46.0356 30.5125 45.9975 29.438C45.9672 28.4041 45.5026 27.4308 44.7183 26.7567C43.7828 26.0137 42.7632 25.3837 41.6805 24.8796V24.8796ZM40.0027 16.5961L28.0856 28.5135L23.2107 23.6383L35.1278 11.7215L40.0027 16.5961ZM1.98399 21.8065C1.81001 21.7206 1.656 21.5986 1.53264 21.4489L1.53193 21.4493V20.2507C1.83425 20.399 2.14549 20.528 2.46385 20.6379L2.49736 20.6493L2.49986 20.6503C5.20756 21.6311 9.99444 22.2168 15.3207 22.2168C16.8434 22.2168 18.3653 22.1612 19.8541 22.061L21.7062 23.3577C21.7019 23.3798 21.703 23.4026 21.6998 23.4251C19.5803 23.6422 17.4512 23.7502 15.3207 23.7488C9.38231 23.7488 3.90202 22.952 1.98399 21.8065ZM15.7058 19.1569L17.8181 20.6354C16.9892 20.6667 16.1553 20.6846 15.3207 20.6846C12.1221 20.7124 8.92705 20.456 5.77335 19.9184C8.92705 19.3811 12.1221 19.1248 15.3207 19.1526C15.4516 19.1548 15.5781 19.1558 15.7054 19.1569H15.7058ZM15.2184 13.2131L19.5885 15.641C19.8876 15.8075 20.2606 15.7551 20.5026 15.5134C20.7443 15.2713 20.7967 14.898 20.6303 14.5993L18.2028 10.2291L21.5344 6.89754L26.4139 12.7532C26.5868 12.9707 26.8642 13.0773 27.138 13.032C27.4122 12.9868 27.6403 12.7967 27.7341 12.5354C27.8282 12.2741 27.7733 11.9821 27.5908 11.7728L22.6221 5.80982L26.8984 1.53347L33.5894 11.0926L22.5814 22.1006L13.0227 15.4093L15.2184 13.2131ZM11.705 16.1889C11.8159 16.3768 11.9656 16.539 12.1442 16.6645L13.5435 17.6435C9.09211 17.7547 5.16942 18.2817 2.74336 19.1041C2.2913 18.969 1.87668 18.7312 1.53193 18.4089V18.405C1.76545 17.7947 4.97619 16.5569 11.705 16.1889ZM15.3207 44.4321C7.21152 44.4321 2.54086 42.9327 2.29807 42.1252V23.6379C4.93982 24.6507 9.81298 25.2807 15.3207 25.2807C17.6552 25.2839 19.9875 25.1577 22.3076 24.9021L27.0022 29.5966C27.2888 29.885 27.6788 30.0465 28.0856 30.0455C28.1723 30.0444 28.2585 30.0359 28.3437 30.0202V42.1234C28.1084 42.9305 23.4374 44.4321 15.3207 44.4321ZM43.7839 31.2323L42.7215 32.2947C42.2612 32.7521 41.6323 32.9988 40.9839 32.9767C40.376 32.9603 39.8031 32.6887 39.4056 32.2284C38.7435 31.3835 38.1817 30.4647 37.731 29.4904C36.844 27.7656 35.8576 25.8476 33.8575 24.9081L36.397 22.3684C37.3364 24.3687 39.2541 25.3549 40.9792 26.2422C41.9536 26.6928 42.8723 27.2547 43.7172 27.9167C44.1775 28.3143 44.4491 28.8868 44.4659 29.4947C44.4887 30.1435 44.242 30.7724 43.7839 31.2323V31.2323Z" fill="#151515"/>
<path d="M26.4606 22.5549L25.9191 23.0965C25.7205 23.289 25.6413 23.5735 25.7116 23.8409C25.7818 24.1083 25.9904 24.3172 26.2578 24.3874C26.5252 24.4577 26.8097 24.3782 27.0022 24.1799L27.5441 23.6384C27.8368 23.3378 27.8336 22.8583 27.5373 22.5617C27.2407 22.2654 26.7608 22.2622 26.4606 22.5549Z" fill="#FFD600"/>
<path d="M34.5856 14.4299L28.6276 20.3883C28.429 20.5808 28.3498 20.8653 28.4201 21.1327C28.4903 21.4001 28.6992 21.609 28.9666 21.6792C29.234 21.7495 29.5185 21.67 29.711 21.4717L35.669 15.513C35.8672 15.3205 35.9467 15.036 35.8765 14.7686C35.8063 14.5012 35.5973 14.2923 35.33 14.2224C35.0626 14.1522 34.7781 14.2313 34.5856 14.4299Z" fill="#FFD600"/>
</svg>
