<svg width="46" height="46" viewBox="0 0 46 46" fill="none" xmlns="http://www.w3.org/2000/svg">
<path d="M7.18967 24.4316H20.1272C20.5246 24.4316 20.8459 24.1104 20.8459 23.7129V20.8379C20.8459 20.4404 20.5246 20.1191 20.1272 20.1191H7.18967C6.7922 20.1191 6.47092 20.4404 6.47092 20.8379V23.7129C6.47092 24.1104 6.7922 24.4316 7.18967 24.4316ZM7.90842 21.5566H19.4084V22.9941H7.90842V21.5566Z" fill="#151515"/>
<path d="M18.6897 25.8691C17.5009 25.8691 16.5334 26.8366 16.5334 28.0254C16.5334 29.2142 17.5009 30.1816 18.6897 30.1816C19.8785 30.1816 20.8459 29.2142 20.8459 28.0254C20.8459 26.8366 19.8785 25.8691 18.6897 25.8691ZM18.6897 28.7441C18.2929 28.7441 17.9709 28.4221 17.9709 28.0254C17.9709 27.6286 18.2929 27.3066 18.6897 27.3066C19.0864 27.3066 19.4084 27.6286 19.4084 28.0254C19.4084 28.4221 19.0864 28.7441 18.6897 28.7441Z" fill="#FFD600"/>
<path d="M13.6584 25.8691C12.4696 25.8691 11.5022 26.8366 11.5022 28.0254C11.5022 29.2142 12.4696 30.1816 13.6584 30.1816C14.8472 30.1816 15.8147 29.2142 15.8147 28.0254C15.8147 26.8366 14.8472 25.8691 13.6584 25.8691ZM13.6584 28.7441C13.2617 28.7441 12.9397 28.4221 12.9397 28.0254C12.9397 27.6286 13.2617 27.3066 13.6584 27.3066C14.0552 27.3066 14.3772 27.6286 14.3772 28.0254C14.3772 28.4221 14.0552 28.7441 13.6584 28.7441Z" fill="#FFD600"/>
<path d="M8.62717 30.1816C9.81598 30.1816 10.7834 29.2142 10.7834 28.0254C10.7834 26.8366 9.81598 25.8691 8.62717 25.8691C7.43835 25.8691 6.47092 26.8366 6.47092 28.0254C6.47092 29.2142 7.43835 30.1816 8.62717 30.1816ZM8.62717 27.3066C9.02392 27.3066 9.34592 27.6286 9.34592 28.0254C9.34592 28.4221 9.02392 28.7441 8.62717 28.7441C8.23042 28.7441 7.90842 28.4221 7.90842 28.0254C7.90842 27.6286 8.23042 27.3066 8.62717 27.3066Z" fill="#FFD600"/>
<path d="M18.6897 30.9004C17.5009 30.9004 16.5334 31.8678 16.5334 33.0566C16.5334 34.2455 17.5009 35.2129 18.6897 35.2129C19.8785 35.2129 20.8459 34.2455 20.8459 33.0566C20.8459 31.8678 19.8785 30.9004 18.6897 30.9004ZM18.6897 33.7754C18.2929 33.7754 17.9709 33.4534 17.9709 33.0566C17.9709 32.6599 18.2929 32.3379 18.6897 32.3379C19.0864 32.3379 19.4084 32.6599 19.4084 33.0566C19.4084 33.4534 19.0864 33.7754 18.6897 33.7754Z" fill="#FFD600"/>
<path d="M13.6584 30.9004C12.4696 30.9004 11.5022 31.8678 11.5022 33.0566C11.5022 34.2455 12.4696 35.2129 13.6584 35.2129C14.8472 35.2129 15.8147 34.2455 15.8147 33.0566C15.8147 31.8678 14.8472 30.9004 13.6584 30.9004ZM13.6584 33.7754C13.2617 33.7754 12.9397 33.4534 12.9397 33.0566C12.9397 32.6599 13.2617 32.3379 13.6584 32.3379C14.0552 32.3379 14.3772 32.6599 14.3772 33.0566C14.3772 33.4534 14.0552 33.7754 13.6584 33.7754Z" fill="#FFD600"/>
<path d="M8.62717 35.2129C9.81598 35.2129 10.7834 34.2455 10.7834 33.0566C10.7834 31.8678 9.81598 30.9004 8.62717 30.9004C7.43835 30.9004 6.47092 31.8678 6.47092 33.0566C6.47092 34.2455 7.43835 35.2129 8.62717 35.2129ZM8.62717 32.3379C9.02392 32.3379 9.34592 32.6599 9.34592 33.0566C9.34592 33.4534 9.02392 33.7754 8.62717 33.7754C8.23042 33.7754 7.90842 33.4534 7.90842 33.0566C7.90842 32.6599 8.23042 32.3379 8.62717 32.3379Z" fill="#FFD600"/>
<path d="M18.6897 35.9316C17.5009 35.9316 16.5334 36.8991 16.5334 38.0879C16.5334 39.2767 17.5009 40.2441 18.6897 40.2441C19.8785 40.2441 20.8459 39.2767 20.8459 38.0879C20.8459 36.8991 19.8785 35.9316 18.6897 35.9316ZM18.6897 38.8066C18.2929 38.8066 17.9709 38.4846 17.9709 38.0879C17.9709 37.6911 18.2929 37.3691 18.6897 37.3691C19.0864 37.3691 19.4084 37.6911 19.4084 38.0879C19.4084 38.4846 19.0864 38.8066 18.6897 38.8066Z" fill="#FFD600"/>
<path d="M13.6584 35.9316C12.4696 35.9316 11.5022 36.8991 11.5022 38.0879C11.5022 39.2767 12.4696 40.2441 13.6584 40.2441C14.8472 40.2441 15.8147 39.2767 15.8147 38.0879C15.8147 36.8991 14.8472 35.9316 13.6584 35.9316ZM13.6584 38.8066C13.2617 38.8066 12.9397 38.4846 12.9397 38.0879C12.9397 37.6911 13.2617 37.3691 13.6584 37.3691C14.0552 37.3691 14.3772 37.6911 14.3772 38.0879C14.3772 38.4846 14.0552 38.8066 13.6584 38.8066Z" fill="#FFD600"/>
<path d="M8.62717 40.2441C9.81598 40.2441 10.7834 39.2767 10.7834 38.0879C10.7834 36.8991 9.81598 35.9316 8.62717 35.9316C7.43835 35.9316 6.47092 36.8991 6.47092 38.0879C6.47092 39.2767 7.43835 40.2441 8.62717 40.2441ZM8.62717 37.3691C9.02392 37.3691 9.34592 37.6911 9.34592 38.0879C9.34592 38.4846 9.02392 38.8066 8.62717 38.8066C8.23042 38.8066 7.90842 38.4846 7.90842 38.0879C7.90842 37.6911 8.23042 37.3691 8.62717 37.3691Z" fill="#FFD600"/>
<path d="M30.1789 10.79H30.125C29.8993 9.02256 28.8506 7.44634 27.3039 6.54575V6.24315C27.3039 6.2065 27.2888 6.17415 27.283 6.13893C27.2751 6.08647 27.2708 6.034 27.2521 5.9844C27.2349 5.93912 27.2061 5.90247 27.1795 5.8615C27.1558 5.82412 27.1364 5.78603 27.1055 5.75368C27.066 5.71128 27.0178 5.68253 26.9697 5.6509C26.9431 5.63365 26.9237 5.60778 26.8942 5.59412C26.887 5.59053 26.8791 5.58837 26.8726 5.58478C26.8669 5.58262 26.8619 5.58047 26.8561 5.57831C25.3324 4.86459 23.534 4.86387 22.001 5.57615C21.9974 5.57759 21.9938 5.57831 21.9902 5.58047C21.9823 5.58406 21.9751 5.58622 21.9672 5.58981C21.9341 5.6049 21.9125 5.63365 21.8831 5.65306C21.8378 5.68325 21.7918 5.70984 21.7544 5.74865C21.7235 5.78243 21.7041 5.82197 21.6797 5.85934C21.6538 5.89959 21.625 5.93553 21.6071 5.98081C21.5884 6.02968 21.5848 6.08215 21.5762 6.13462C21.5704 6.17056 21.5553 6.2029 21.5553 6.23956V6.54287C20.0057 7.44346 18.9549 9.0204 18.7285 10.7892H18.6789C18.2814 10.7892 17.9601 11.1105 17.9601 11.508V13.6642C17.9601 14.0617 18.2814 14.383 18.6789 14.383H30.1789C30.5764 14.383 30.8976 14.0617 30.8976 13.6642V11.508C30.8976 11.1112 30.5764 10.79 30.1789 10.79ZM21.5553 8.29447V8.63228C21.5553 9.02975 21.8766 9.35103 22.2741 9.35103C22.6715 9.35103 22.9928 9.02975 22.9928 8.63228V6.72328C23.9207 6.39697 24.9428 6.3984 25.8664 6.72472V8.63228C25.8664 9.02975 26.1877 9.35103 26.5851 9.35103C26.9826 9.35103 27.3039 9.02975 27.3039 8.63228V8.29878C28.0234 8.94781 28.5071 9.82828 28.6717 10.79H20.1818C20.3478 9.82612 20.833 8.9435 21.5553 8.29447ZM29.4601 12.9462H19.3976V12.2275H29.4601V12.9462Z" fill="#151515"/>
<path d="M34.4986 20.1294H36.6548C37.0523 20.1294 37.3736 19.8081 37.3736 19.4106C37.3736 19.0132 37.0523 18.6919 36.6548 18.6919H34.4986C34.1011 18.6919 33.7798 19.0132 33.7798 19.4106C33.7798 19.8081 34.1011 20.1294 34.4986 20.1294Z" fill="#FFD600"/>
<path d="M36.6548 22.2856H33.7791C33.3816 22.2856 33.0604 22.6069 33.0604 23.0044C33.0604 23.4019 33.3816 23.7231 33.7791 23.7231H36.6548C37.0523 23.7231 37.3736 23.4019 37.3736 23.0044C37.3736 22.6069 37.0523 22.2856 36.6548 22.2856Z" fill="#FFD600"/>
<path d="M36.6548 25.8794H34.4986C34.1011 25.8794 33.7798 26.2007 33.7798 26.5981C33.7798 26.9956 34.1011 27.3169 34.4986 27.3169H36.6548C37.0523 27.3169 37.3736 26.9956 37.3736 26.5981C37.3736 26.2007 37.0523 25.8794 36.6548 25.8794Z" fill="#FFD600"/>
<path d="M36.6548 29.4731H35.218C34.8206 29.4731 34.4993 29.7944 34.4993 30.1919C34.4993 30.5894 34.8206 30.9106 35.218 30.9106H36.6548C37.0523 30.9106 37.3736 30.5894 37.3736 30.1919C37.3736 29.7944 37.0523 29.4731 36.6548 29.4731Z" fill="#FFD600"/>
<path d="M36.6548 33.0669H34.4986C34.1011 33.0669 33.7798 33.3882 33.7798 33.7856C33.7798 34.1831 34.1011 34.5044 34.4986 34.5044H36.6548C37.0523 34.5044 37.3736 34.1831 37.3736 33.7856C37.3736 33.3882 37.0523 33.0669 36.6548 33.0669Z" fill="#FFD600"/>
<path d="M36.6548 36.6606H33.7791C33.3816 36.6606 33.0604 36.9819 33.0604 37.3794C33.0604 37.7769 33.3816 38.0981 33.7791 38.0981H36.6548C37.0523 38.0981 37.3736 37.7769 37.3736 37.3794C37.3736 36.9819 37.0523 36.6606 36.6548 36.6606Z" fill="#FFD600"/>
<path d="M42.4027 5.75155C42.402 5.66026 42.384 5.5697 42.3488 5.48417C42.3121 5.39576 42.2596 5.31598 42.1928 5.24986L37.1637 0.217172C37.0976 0.150328 37.0178 0.0978594 36.9294 0.0612031C36.8417 0.0245469 36.7483 0.00585938 36.6548 0.00585938H13.6584C13.2609 0.00585938 12.9397 0.327141 12.9397 0.724609V17.2444H5.75217C4.56335 17.2444 3.59592 18.2118 3.59592 19.4006V22.2756V40.9631V43.8381C3.59592 45.0269 4.56335 45.9944 5.75217 45.9944H21.5647C22.7535 45.9944 23.7209 45.0269 23.7209 43.8381V43.1165H41.6854C42.0828 43.1165 42.4041 42.7952 42.4041 42.3977V5.76017C42.4041 5.76017 42.4041 5.76017 42.4041 5.75945V5.75873C42.4041 5.75586 42.4027 5.7537 42.4027 5.75155ZM37.3736 2.46039L39.951 5.03998H37.3736V2.46039ZM5.03342 19.4006C5.03342 19.0039 5.35542 18.6819 5.75217 18.6819H21.5647C21.9614 18.6819 22.2834 19.0039 22.2834 19.4006V22.2756V40.9631C22.2834 41.3599 21.9614 41.6819 21.5647 41.6819H5.75217C5.35542 41.6819 5.03342 41.3599 5.03342 40.9631V22.2756V19.4006ZM21.5647 44.5569H5.75217C5.35542 44.5569 5.03342 44.2349 5.03342 43.8381V42.9864C5.2591 43.0669 5.49845 43.1194 5.75217 43.1194H21.5647C21.8184 43.1194 22.0577 43.0676 22.2834 42.9864V43.8381C22.2834 44.2349 21.9614 44.5569 21.5647 44.5569ZM23.7209 40.9631V38.0982H30.1839C30.5814 38.0982 30.9027 37.7769 30.9027 37.3794C30.9027 36.9819 30.5814 36.6607 30.1839 36.6607H23.7209V34.5044H30.1839C30.5814 34.5044 30.9027 34.1831 30.9027 33.7857C30.9027 33.3882 30.5814 33.0669 30.1839 33.0669H23.7209V30.9107H30.1839C30.5814 30.9107 30.9027 30.5894 30.9027 30.1919C30.9027 29.7944 30.5814 29.4732 30.1839 29.4732H23.7209V27.3169H30.1839C30.5814 27.3169 30.9027 26.9956 30.9027 26.5982C30.9027 26.2007 30.5814 25.8794 30.1839 25.8794H23.7209V23.7232H30.1839C30.5814 23.7232 30.9027 23.4019 30.9027 23.0044C30.9027 22.607 30.5814 22.2857 30.1839 22.2857H23.7209V22.2756V20.1294H30.1839C30.5814 20.1294 30.9027 19.8081 30.9027 19.4107C30.9027 19.0132 30.5814 18.6919 30.1839 18.6919H23.5915C23.2961 17.8517 22.5034 17.2444 21.5647 17.2444H14.3772V1.44336H35.9361V5.75873C35.9361 6.1562 36.2574 6.47748 36.6548 6.47748H40.9666V41.6797H23.7209V40.9631Z" fill="#151515"/>
</svg>
