<svg width="46" height="46" viewBox="0 0 46 46" fill="none" xmlns="http://www.w3.org/2000/svg">
<path d="M9.34375 30.1899C8.15476 30.1899 7.1875 31.1572 7.1875 32.3462C7.1875 33.5352 8.15476 34.5024 9.34375 34.5024C10.5327 34.5024 11.5 33.5352 11.5 32.3462C11.5 31.1572 10.5327 30.1899 9.34375 30.1899ZM9.34375 33.0649C8.94745 33.0649 8.625 32.7425 8.625 32.3462C8.625 31.9499 8.94745 31.6274 9.34375 31.6274C9.74005 31.6274 10.0625 31.9499 10.0625 32.3462C10.0625 32.7425 9.74005 33.0649 9.34375 33.0649Z" fill="#151515"/>
<path d="M36.6562 30.1899C35.4673 30.1899 34.5 31.1572 34.5 32.3462C34.5 33.5352 35.4673 34.5024 36.6562 34.5024C37.8452 34.5024 38.8125 33.5352 38.8125 32.3462C38.8125 31.1572 37.8452 30.1899 36.6562 30.1899ZM36.6562 33.0649C36.2599 33.0649 35.9375 32.7425 35.9375 32.3462C35.9375 31.9499 36.2599 31.6274 36.6562 31.6274C37.0526 31.6274 37.375 31.9499 37.375 32.3462C37.375 32.7425 37.0526 33.0649 36.6562 33.0649Z" fill="#151515"/>
<path d="M45.2812 30.1899V25.2753C45.2812 24.0358 44.4913 22.9397 43.3154 22.5478L40.7936 21.7073L38.5846 16.1846C38.1454 15.0868 37.0977 14.3774 35.9152 14.3774H29.4688V10.7837C29.4688 9.5947 28.5015 8.62744 27.3125 8.62744H2.875C1.68601 8.62744 0.71875 9.5947 0.71875 10.7837V30.1952C0.315082 30.2402 0 30.5831 0 30.9985V32.3462C0 33.5352 0.967258 34.5024 2.15625 34.5024H4.79891C6.61978 38.3248 12.0626 38.3354 13.8885 34.5024H32.1114C33.9323 38.3248 39.3751 38.3354 41.201 34.5024H43.8438C45.0327 34.5024 46 33.5352 46 32.3462V30.9087C46 30.5117 45.6782 30.1899 45.2812 30.1899ZM35.9151 15.8149C36.5064 15.8149 37.0303 16.1696 37.2498 16.7186L39.5826 22.5507C39.6612 22.747 39.8222 22.8988 40.0227 22.9656L42.8608 23.9117C43.4487 24.1076 43.8437 24.6557 43.8437 25.2754V27.315H43.1249C42.728 27.315 42.4062 27.6369 42.4062 28.0338C42.4062 28.4307 42.728 28.7525 43.1249 28.7525H43.8437V30.19H41.201C39.3801 26.3677 33.9373 26.357 32.1114 30.19H29.4688V15.815H35.9151V15.8149ZM2.875 10.0649H27.3125C27.7088 10.0649 28.0312 10.3874 28.0312 10.7837V30.1899H13.8886C12.0677 26.3676 6.6249 26.3569 4.799 30.1899H2.15625V10.7837C2.15625 10.3874 2.4787 10.0649 2.875 10.0649ZM2.15625 33.0649C1.75995 33.0649 1.4375 32.7425 1.4375 32.3462V31.6274H4.3647C4.29525 32.1107 4.29516 32.5808 4.3647 33.0649H2.15625ZM9.34375 35.9399C7.83887 35.9399 6.5479 35.0098 6.01342 33.6945C6.00012 33.5873 5.9632 33.4876 5.90804 33.4003C5.69735 32.7151 5.69708 31.9781 5.90804 31.292C5.9632 31.2047 6.00012 31.1051 6.01342 30.9978C6.5479 29.6825 7.83887 28.7524 9.34375 28.7524C10.8486 28.7524 12.1396 29.6825 12.6741 30.9978C12.6874 31.105 12.7243 31.2047 12.7795 31.292C12.9901 31.9771 12.9904 32.7142 12.7795 33.4003C12.7243 33.4876 12.6874 33.5872 12.6741 33.6945C12.1396 35.0097 10.8486 35.9399 9.34375 35.9399ZM14.3228 33.0649C14.3923 32.5817 14.3923 32.1116 14.3228 31.6274H31.6771C31.6077 32.1107 31.6076 32.5808 31.6771 33.0649H14.3228ZM36.6562 35.9399C35.1514 35.9399 33.8604 35.0098 33.3259 33.6945C33.3126 33.5873 33.2757 33.4876 33.2205 33.4003C33.0099 32.7151 33.0096 31.9781 33.2205 31.292C33.2757 31.2047 33.3126 31.1051 33.3259 30.9978C33.8604 29.6825 35.1514 28.7524 36.6562 28.7524C38.1611 28.7524 39.4521 29.6825 39.9866 30.9978C39.9999 31.105 40.0368 31.2047 40.092 31.292C40.3026 31.9771 40.3029 32.7142 40.092 33.4003C40.0368 33.4876 39.9999 33.5872 39.9866 33.6945C39.4521 35.0097 38.1611 35.9399 36.6562 35.9399ZM44.5625 32.3462C44.5625 32.7425 44.2401 33.0649 43.8438 33.0649H41.6353C41.7048 32.5817 41.7048 32.1116 41.6353 31.6274H44.5625V32.3462Z" fill="#151515"/>
<path d="M31.625 23.0024H36.6562C37.1462 23.0024 37.4932 22.5216 37.3381 22.0564L35.9006 17.7439C35.8027 17.4504 35.5281 17.2524 35.2187 17.2524H31.625C31.2281 17.2524 30.9062 17.5743 30.9062 17.9712V22.2837C30.9062 22.6806 31.2281 23.0024 31.625 23.0024ZM32.3437 18.6899H34.7007L35.6591 21.5649H32.3437V18.6899Z" fill="#151515"/>
<path d="M33.0625 24.4399H31.625C31.2281 24.4399 30.9062 24.7618 30.9062 25.1587C30.9062 25.5556 31.2281 25.8774 31.625 25.8774H33.0625C33.4594 25.8774 33.7812 25.5556 33.7812 25.1587C33.7812 24.7618 33.4594 24.4399 33.0625 24.4399Z" fill="#151515"/>
<path d="M6.46875 23.7212H12.9375V25.1587C12.9375 25.5556 13.2593 25.8774 13.6562 25.8774H23.7188C24.1157 25.8774 24.4375 25.5556 24.4375 25.1587V15.0962C24.4375 14.6993 24.1157 14.3774 23.7188 14.3774C21.6196 14.3774 15.7546 14.3774 13.6562 14.3774C13.2593 14.3774 12.9375 14.6993 12.9375 15.0962V16.5337H10.7812C10.3843 16.5337 10.0625 16.8555 10.0625 17.2524C10.0625 17.6494 10.3843 17.9712 10.7812 17.9712H12.9375V19.4087H9.34375C8.94682 19.4087 8.625 19.7305 8.625 20.1274C8.625 20.5244 8.94682 20.8462 9.34375 20.8462H12.9375V22.2837H6.46875C6.07182 22.2837 5.75 22.6055 5.75 23.0024C5.75 23.3994 6.07182 23.7212 6.46875 23.7212ZM19.4062 15.8149V17.2524H17.9688V15.8149H19.4062ZM14.375 15.8149H16.5312V17.9712C16.5312 18.3681 16.8531 18.6899 17.25 18.6899H20.125C20.5219 18.6899 20.8438 18.3681 20.8438 17.9712V15.8149H23V24.4399H14.375V15.8149Z" fill="#FFD600"/>
</svg>
