<svg width="44" height="44" viewBox="0 0 44 44" fill="none" xmlns="http://www.w3.org/2000/svg">
<path d="M20.3046 21.9169L20.4229 21.7994C20.4886 21.736 20.5411 21.6602 20.5773 21.5764C20.6134 21.4926 20.6325 21.4024 20.6334 21.3111C20.6343 21.2198 20.6171 21.1293 20.5826 21.0448C20.5482 20.9602 20.4972 20.8834 20.4328 20.8188C20.3683 20.7541 20.2916 20.703 20.2072 20.6683C20.1227 20.6336 20.0322 20.6161 19.941 20.6167C19.8497 20.6174 19.7594 20.6362 19.6755 20.6721C19.5916 20.708 19.5156 20.7603 19.4521 20.8259L19.3332 20.9441C18.9405 21.3197 18.4181 21.5294 17.8747 21.5294C17.3313 21.5294 16.8088 21.3197 16.4161 20.9441L16.2979 20.8265C16.2344 20.761 16.1584 20.7087 16.0745 20.6728C15.9906 20.6369 15.9003 20.6181 15.8091 20.6174C15.7178 20.6167 15.6273 20.6343 15.5428 20.669C15.4584 20.7036 15.3817 20.7548 15.3173 20.8194C15.2528 20.8841 15.2019 20.9609 15.1674 21.0454C15.133 21.13 15.1157 21.2205 15.1166 21.3118C15.1175 21.4031 15.1366 21.4933 15.1728 21.5771C15.2089 21.6609 15.2614 21.7367 15.3271 21.8L15.4447 21.9169C16.0893 22.5611 16.9633 22.923 17.8747 22.923C18.786 22.923 19.66 22.5611 20.3046 21.9169V21.9169Z" fill="#151515"/>
<path d="M11.6875 13.75H16.5C16.6823 13.75 16.8572 13.6776 16.9861 13.5486C17.1151 13.4197 17.1875 13.2448 17.1875 13.0625V12.375H18.5625V13.0625C18.5625 13.2448 18.6349 13.4197 18.7639 13.5486C18.8928 13.6776 19.0677 13.75 19.25 13.75H24.0625C24.2448 13.75 24.4197 13.6776 24.5486 13.5486C24.6776 13.4197 24.75 13.2448 24.75 13.0625C24.75 12.8802 24.6776 12.7053 24.5486 12.5764C24.4197 12.4474 24.2448 12.375 24.0625 12.375H19.9375V11.6875C19.9375 11.5052 19.8651 11.3303 19.7361 11.2014C19.6072 11.0724 19.4323 11 19.25 11H16.5C16.3177 11 16.1428 11.0724 16.0139 11.2014C15.8849 11.3303 15.8125 11.5052 15.8125 11.6875V12.375H11.6875C11.5052 12.375 11.3303 12.4474 11.2014 12.5764C11.0724 12.7053 11 12.8802 11 13.0625C11 13.2448 11.0724 13.4197 11.2014 13.5486C11.3303 13.6776 11.5052 13.75 11.6875 13.75Z" fill="#FFD600"/>
<path d="M25.4375 27.5H21.3125V25.2931C22.4608 24.704 23.4398 23.8316 24.1569 22.7585C24.8739 21.6853 25.3052 20.447 25.41 19.1606C26.0051 19.0135 26.5339 18.6718 26.9126 18.1898C27.2912 17.7077 27.498 17.113 27.5 16.5C28.047 16.5 28.5716 16.2827 28.9584 15.8959C29.3452 15.5091 29.5625 14.9845 29.5625 14.4375C29.5625 13.8905 29.3452 13.3659 28.9584 12.9791C28.5716 12.5923 28.047 12.375 27.5 12.375C27.506 10.2965 26.8359 8.27246 25.5908 6.60819C24.3457 4.94391 22.5931 3.7297 20.5975 3.14875C20.5281 2.65788 20.2842 2.20844 19.9105 1.8827C19.5368 1.55696 19.0582 1.37673 18.5625 1.375H17.1875C16.6918 1.37673 16.2132 1.55696 15.8395 1.8827C15.4658 2.20844 15.2219 2.65788 15.1525 3.14875C13.1569 3.7297 11.4043 4.94391 10.1592 6.60819C8.91406 8.27246 8.24397 10.2965 8.25 12.375C7.70299 12.375 7.17839 12.5923 6.79159 12.9791C6.4048 13.3659 6.1875 13.8905 6.1875 14.4375C6.1875 14.9845 6.4048 15.5091 6.79159 15.8959C7.17839 16.2827 7.70299 16.5 8.25 16.5C8.25201 17.113 8.45876 17.7077 8.83742 18.1898C9.21607 18.6718 9.74493 19.0135 10.34 19.1606C10.4448 20.447 10.8761 21.6853 11.5931 22.7585C12.3102 23.8316 13.2892 24.704 14.4375 25.2931V27.5H10.3125C8.67225 27.5025 7.09992 28.1553 5.94009 29.3151C4.78026 30.4749 4.12755 32.0473 4.125 33.6875V41.9375C4.125 42.1198 4.19743 42.2947 4.32636 42.4236C4.4553 42.5526 4.63016 42.625 4.8125 42.625H30.9375C31.1198 42.625 31.2947 42.5526 31.4236 42.4236C31.5526 42.2947 31.625 42.1198 31.625 41.9375V33.6875C31.6225 32.0473 30.9697 30.4749 29.8099 29.3151C28.6501 28.1553 27.0777 27.5025 25.4375 27.5V27.5ZM9.625 41.25H5.5V33.6875C5.50136 32.5312 5.91897 31.4141 6.67644 30.5405C7.43391 29.6669 8.48059 29.0952 9.625 28.93V41.25ZM25.4375 17.6894V16.5H26.125C26.1259 16.7413 26.0627 16.9786 25.9419 17.1876C25.8211 17.3965 25.6471 17.5697 25.4375 17.6894ZM10.3125 17.6894C10.1029 17.5697 9.92886 17.3965 9.80808 17.1876C9.6873 16.9786 9.62412 16.7413 9.625 16.5H10.3125V17.6894ZM8.25 15.125C8.06766 15.125 7.8928 15.0526 7.76386 14.9236C7.63493 14.7947 7.5625 14.6198 7.5625 14.4375C7.5625 14.2552 7.63493 14.0803 7.76386 13.9514C7.8928 13.8224 8.06766 13.75 8.25 13.75C8.25 13.9323 8.32243 14.1072 8.45136 14.2361C8.5803 14.3651 8.75516 14.4375 8.9375 14.4375C9.11984 14.4375 9.2947 14.3651 9.42364 14.2361C9.55257 14.1072 9.625 13.9323 9.625 13.75V12.375C9.62138 11.0644 9.93155 9.77207 10.5296 8.60591C11.1276 7.43976 11.9961 6.43371 13.0625 5.67188V7.5625C13.0625 7.74484 13.1349 7.9197 13.2639 8.04864C13.3928 8.17757 13.5677 8.25 13.75 8.25C13.9323 8.25 14.1072 8.17757 14.2361 8.04864C14.3651 7.9197 14.4375 7.74484 14.4375 7.5625V4.87438C14.6644 4.77125 14.8912 4.68188 15.125 4.59938V8.9375C15.125 9.11984 15.1974 9.2947 15.3264 9.42364C15.4553 9.55257 15.6302 9.625 15.8125 9.625C15.9948 9.625 16.1697 9.55257 16.2986 9.42364C16.4276 9.2947 16.5 9.11984 16.5 8.9375V3.4375C16.5 3.25516 16.5724 3.0803 16.7014 2.95136C16.8303 2.82243 17.0052 2.75 17.1875 2.75H18.5625C18.7448 2.75 18.9197 2.82243 19.0486 2.95136C19.1776 3.0803 19.25 3.25516 19.25 3.4375V8.9375C19.25 9.11984 19.3224 9.2947 19.4514 9.42364C19.5803 9.55257 19.7552 9.625 19.9375 9.625C20.1198 9.625 20.2947 9.55257 20.4236 9.42364C20.5526 9.2947 20.625 9.11984 20.625 8.9375V4.59938C20.8588 4.68188 21.0856 4.77125 21.3125 4.87438V7.5625C21.3125 7.74484 21.3849 7.9197 21.5139 8.04864C21.6428 8.17757 21.8177 8.25 22 8.25C22.1823 8.25 22.3572 8.17757 22.4861 8.04864C22.6151 7.9197 22.6875 7.74484 22.6875 7.5625V5.67188C23.7539 6.43371 24.6224 7.43976 25.2204 8.60591C25.8184 9.77207 26.1286 11.0644 26.125 12.375V13.75C26.125 13.9323 26.1974 14.1072 26.3264 14.2361C26.4553 14.3651 26.6302 14.4375 26.8125 14.4375C26.9948 14.4375 27.1697 14.3651 27.2986 14.2361C27.4276 14.1072 27.5 13.9323 27.5 13.75C27.6823 13.75 27.8572 13.8224 27.9861 13.9514C28.1151 14.0803 28.1875 14.2552 28.1875 14.4375C28.1875 14.6198 28.1151 14.7947 27.9861 14.9236C27.8572 15.0526 27.6823 15.125 27.5 15.125H8.25ZM11.6875 18.5625V16.5H14.4375C14.2552 16.5 14.0803 16.5724 13.9514 16.7014C13.8224 16.8303 13.75 17.0052 13.75 17.1875C13.75 17.3698 13.8224 17.5447 13.9514 17.6736C14.0803 17.8026 14.2552 17.875 14.4375 17.875H15.125C15.3073 17.875 15.4822 17.8026 15.6111 17.6736C15.7401 17.5447 15.8125 17.3698 15.8125 17.1875C15.8125 17.0052 15.7401 16.8303 15.6111 16.7014C15.4822 16.5724 15.3073 16.5 15.125 16.5H20.625C20.4427 16.5 20.2678 16.5724 20.1389 16.7014C20.0099 16.8303 19.9375 17.0052 19.9375 17.1875C19.9375 17.3698 20.0099 17.5447 20.1389 17.6736C20.2678 17.8026 20.4427 17.875 20.625 17.875H21.3125C21.4948 17.875 21.6697 17.8026 21.7986 17.6736C21.9276 17.5447 22 17.3698 22 17.1875C22 17.0052 21.9276 16.8303 21.7986 16.7014C21.6697 16.5724 21.4948 16.5 21.3125 16.5H24.0625V18.5625C24.0625 20.2035 23.4106 21.7773 22.2502 22.9377C21.0898 24.0981 19.516 24.75 17.875 24.75C16.234 24.75 14.6602 24.0981 13.4998 22.9377C12.3394 21.7773 11.6875 20.2035 11.6875 18.5625V18.5625ZM19.9375 25.8294V28.1875C19.9375 28.7345 19.7202 29.2591 19.3334 29.6459C18.9466 30.0327 18.422 30.25 17.875 30.25C17.328 30.25 16.8034 30.0327 16.4166 29.6459C16.0298 29.2591 15.8125 28.7345 15.8125 28.1875V25.8294C17.1593 26.2235 18.5907 26.2235 19.9375 25.8294ZM13.75 28.875H14.5063C14.664 29.6521 15.0856 30.3507 15.6996 30.8525C16.3135 31.3543 17.0821 31.6284 17.875 31.6284C18.6679 31.6284 19.4365 31.3543 20.0504 30.8525C20.6644 30.3507 21.086 29.6521 21.2437 28.875H22V34.375H13.75V28.875ZM22 41.25H13.75V38.5H22V41.25ZM24.75 41.25H23.375V37.8125C23.375 37.6302 23.3026 37.4553 23.1736 37.3264C23.0447 37.1974 22.8698 37.125 22.6875 37.125H13.0625C12.8802 37.125 12.7053 37.1974 12.5764 37.3264C12.4474 37.4553 12.375 37.6302 12.375 37.8125V41.25H11V28.875H12.375V35.0625C12.375 35.2448 12.4474 35.4197 12.5764 35.5486C12.7053 35.6776 12.8802 35.75 13.0625 35.75H22.6875C22.8698 35.75 23.0447 35.6776 23.1736 35.5486C23.3026 35.4197 23.375 35.2448 23.375 35.0625V28.875H24.75V41.25ZM30.25 41.25H26.125V28.93C27.2694 29.0952 28.3161 29.6669 29.0736 30.5405C29.831 31.4141 30.2486 32.5312 30.25 33.6875V41.25Z" fill="#151515"/>
<path d="M41.1607 26.0632L37.3244 16.2045C37.2016 15.8867 36.9855 15.6135 36.7045 15.4208C36.4235 15.2281 36.0908 15.125 35.75 15.125C35.4093 15.125 35.0766 15.2281 34.7956 15.4208C34.5146 15.6135 34.2985 15.8867 34.1757 16.2045L30.3394 26.0632C30.2176 26.3756 30.1738 26.7129 30.2117 27.046C30.2496 27.3791 30.3682 27.6979 30.5571 27.9749C30.7461 28.2518 30.9996 28.4786 31.2959 28.6354C31.5922 28.7923 31.9223 28.8746 32.2575 28.8751H35.0625V31.6251C34.516 31.6267 33.9924 31.8446 33.6059 32.231C33.2195 32.6175 33.0017 33.1411 33 33.6876V40.5626C33.0017 41.1091 33.2195 41.6328 33.6059 42.0192C33.9924 42.4057 34.516 42.6235 35.0625 42.6251H36.4375C36.9841 42.6235 37.5077 42.4057 37.8941 42.0192C38.2806 41.6328 38.4984 41.1091 38.5 40.5626V33.6876C38.4984 33.1411 38.2806 32.6175 37.8941 32.231C37.5077 31.8446 36.9841 31.6267 36.4375 31.6251V28.8751H39.2425C39.5778 28.8746 39.9079 28.7923 40.2042 28.6354C40.5004 28.4786 40.754 28.2518 40.943 27.9749C41.1319 27.6979 41.2504 27.3791 41.2884 27.046C41.3263 26.7129 41.2825 26.3756 41.1607 26.0632V26.0632ZM37.125 33.6876V40.5626C37.125 40.745 37.0526 40.9198 36.9237 41.0488C36.7947 41.1777 36.6199 41.2501 36.4375 41.2501H35.0625C34.8802 41.2501 34.7053 41.1777 34.5764 41.0488C34.4475 40.9198 34.375 40.745 34.375 40.5626V33.6876C34.375 33.5053 34.4475 33.3304 34.5764 33.2015C34.7053 33.0725 34.8802 33.0001 35.0625 33.0001H36.4375C36.6199 33.0001 36.7947 33.0725 36.9237 33.2015C37.0526 33.3304 37.125 33.5053 37.125 33.6876ZM39.8063 27.1976C39.7447 27.2908 39.661 27.3672 39.5626 27.42C39.4642 27.4728 39.3542 27.5003 39.2425 27.5001H36.4375V24.0626C36.4375 23.8803 36.3651 23.7054 36.2362 23.5765C36.1072 23.4475 35.9324 23.3751 35.75 23.3751C35.5677 23.3751 35.3928 23.4475 35.2639 23.5765C35.135 23.7054 35.0625 23.8803 35.0625 24.0626V27.5001H32.2575C32.1464 27.4988 32.0372 27.4708 31.9393 27.4184C31.8413 27.3659 31.7574 27.2907 31.6946 27.1989C31.6319 27.1072 31.5922 27.0017 31.5789 26.8914C31.5656 26.781 31.5791 26.6691 31.6182 26.5651L35.4544 16.6995C35.4783 16.6406 35.5192 16.5903 35.5718 16.5548C35.6245 16.5193 35.6865 16.5004 35.75 16.5004C35.8135 16.5004 35.8756 16.5193 35.9283 16.5548C35.9809 16.5903 36.0218 16.6406 36.0457 16.6995L39.8819 26.5651C39.9228 26.6685 39.9373 26.7805 39.9241 26.8909C39.9109 27.0014 39.8704 27.1068 39.8063 27.1976V27.1976Z" fill="#FFD600"/>
<path d="M41.9375 1.375H25.4375C25.2552 1.375 25.0803 1.44743 24.9514 1.57636C24.8224 1.7053 24.75 1.88016 24.75 2.0625V4.13188C24.75 4.31421 24.8224 4.48908 24.9514 4.61801C25.0803 4.74694 25.2552 4.81938 25.4375 4.81938C25.6198 4.81938 25.7947 4.74694 25.9236 4.61801C26.0526 4.48908 26.125 4.31421 26.125 4.13188V2.75H33V6.875H28.0981C27.9158 6.875 27.7409 6.94743 27.612 7.07636C27.4831 7.2053 27.4106 7.38016 27.4106 7.5625C27.4106 7.74484 27.4831 7.9197 27.612 8.04864C27.7409 8.17757 27.9158 8.25 28.0981 8.25H28.875V10.8625C28.875 11.0448 28.9474 11.2197 29.0764 11.3486C29.2053 11.4776 29.3802 11.55 29.5625 11.55C29.7448 11.55 29.9197 11.4776 30.0486 11.3486C30.1776 11.2197 30.25 11.0448 30.25 10.8625V8.25H37.125V12.375H30.91C30.7277 12.375 30.5528 12.4474 30.4239 12.5764C30.2949 12.7053 30.2225 12.8802 30.2225 13.0625C30.2225 13.2448 30.2949 13.4197 30.4239 13.5486C30.5528 13.6776 30.7277 13.75 30.91 13.75H30.9375V17.875H28.875C28.6927 17.875 28.5178 17.9474 28.3889 18.0764C28.2599 18.2053 28.1875 18.3802 28.1875 18.5625V23.375H25.4375C25.2552 23.375 25.0803 23.4474 24.9514 23.5764C24.8224 23.7053 24.75 23.8802 24.75 24.0625C24.75 24.2448 24.8224 24.4197 24.9514 24.5486C25.0803 24.6776 25.2552 24.75 25.4375 24.75H28.875C29.0573 24.75 29.2322 24.6776 29.3611 24.5486C29.4901 24.4197 29.5625 24.2448 29.5625 24.0625V19.25H31.625C31.8073 19.25 31.9822 19.1776 32.1111 19.0486C32.2401 18.9197 32.3125 18.7448 32.3125 18.5625V13.75H41.25V17.875H39.875C39.6927 17.875 39.5178 17.9474 39.3889 18.0764C39.2599 18.2053 39.1875 18.3802 39.1875 18.5625C39.1875 18.7448 39.2599 18.9197 39.3889 19.0486C39.5178 19.1776 39.6927 19.25 39.875 19.25H41.25V24.0625C41.25 24.2448 41.3224 24.4197 41.4514 24.5486C41.5803 24.6776 41.7552 24.75 41.9375 24.75C42.1198 24.75 42.2947 24.6776 42.4236 24.5486C42.5526 24.4197 42.625 24.2448 42.625 24.0625V2.0625C42.625 1.88016 42.5526 1.7053 42.4236 1.57636C42.2947 1.44743 42.1198 1.375 41.9375 1.375V1.375ZM41.25 12.375H38.5V8.25H41.25V12.375ZM41.25 6.875H34.375V2.75H41.25V6.875Z" fill="#151515"/>
<path d="M13.75 2.0625C13.75 2.24484 13.6776 2.4197 13.5486 2.54864C13.4197 2.67757 13.2448 2.75 13.0625 2.75H9.625V5.46562C9.625 5.64796 9.55257 5.82283 9.42364 5.95176C9.2947 6.08069 9.11984 6.15312 8.9375 6.15312C8.75516 6.15312 8.5803 6.08069 8.45136 5.95176C8.32243 5.82283 8.25 5.64796 8.25 5.46562V2.75H2.75V6.875H7.6175C7.79984 6.875 7.9747 6.94743 8.10364 7.07636C8.23257 7.2053 8.305 7.38016 8.305 7.5625C8.305 7.74484 8.23257 7.9197 8.10364 8.04864C7.9747 8.17757 7.79984 8.25 7.6175 8.25H6.875V11.0962C6.875 11.2786 6.80257 11.4535 6.67364 11.5824C6.5447 11.7113 6.36984 11.7837 6.1875 11.7837C6.00516 11.7837 5.8303 11.7113 5.70136 11.5824C5.57243 11.4535 5.5 11.2786 5.5 11.0962V8.25H2.75V12.375H5.5C5.68234 12.375 5.8572 12.4474 5.98614 12.5764C6.11507 12.7053 6.1875 12.8802 6.1875 13.0625C6.1875 13.2448 6.11507 13.4197 5.98614 13.5486C5.8572 13.6776 5.68234 13.75 5.5 13.75H2.75V17.875H6.875C7.05734 17.875 7.2322 17.9474 7.36114 18.0764C7.49007 18.2053 7.5625 18.3802 7.5625 18.5625C7.5625 18.7448 7.49007 18.9197 7.36114 19.0486C7.2322 19.1776 7.05734 19.25 6.875 19.25H2.75V23.375H8.25V21.3125C8.25 21.1302 8.32243 20.9553 8.45136 20.8264C8.5803 20.6974 8.75516 20.625 8.9375 20.625C9.11984 20.625 9.2947 20.6974 9.42364 20.8264C9.55257 20.9553 9.625 21.1302 9.625 21.3125V23.375H10.3125C10.4948 23.375 10.6697 23.4474 10.7986 23.5764C10.9276 23.7053 11 23.8802 11 24.0625C11 24.2448 10.9276 24.4197 10.7986 24.5486C10.6697 24.6776 10.4948 24.75 10.3125 24.75H2.0625C1.88016 24.75 1.7053 24.6776 1.57636 24.5486C1.44743 24.4197 1.375 24.2448 1.375 24.0625V2.0625C1.375 1.88016 1.44743 1.7053 1.57636 1.57636C1.7053 1.44743 1.88016 1.375 2.0625 1.375H13.0625C13.2448 1.375 13.4197 1.44743 13.5486 1.57636C13.6776 1.7053 13.75 1.88016 13.75 2.0625Z" fill="#151515"/>
</svg>
