<svg width="44" height="44" viewBox="0 0 44 44" fill="none" xmlns="http://www.w3.org/2000/svg">
<g clip-path="url(#clip0_34_260)">
<path d="M28.2283 14.9126C28.2283 14.5566 27.9398 14.2681 27.5837 14.2681H19.5137C19.1577 14.2681 18.8691 14.5566 18.8691 14.9126C18.8691 15.2686 19.1577 15.5571 19.5137 15.5571H27.5837C27.9397 15.5571 28.2283 15.2686 28.2283 14.9126Z" fill="#151515"/>
<path d="M9.3649 26.111C9.3649 27.0527 10.131 27.8188 11.0727 27.8188H14.8988C15.8404 27.8188 16.6065 27.0526 16.6065 26.111V22.3027L17.2056 21.7036C17.4573 21.4519 17.4573 21.0438 17.2056 20.7922C16.9539 20.5404 16.5458 20.5405 16.2941 20.7922L16.0548 21.0315C15.7503 20.7505 15.345 20.5771 14.8988 20.5771H11.0727C10.131 20.5771 9.36498 21.3433 9.36498 22.2849V26.111H9.3649ZM10.654 22.2849C10.654 22.0541 10.8418 21.8662 11.0727 21.8662H14.8988C14.9893 21.8662 15.0727 21.8959 15.1413 21.9449L13.1595 23.9267L12.7026 23.4699C12.4509 23.2182 12.0428 23.2182 11.7912 23.4699C11.5395 23.7216 11.5395 24.1297 11.7912 24.3813L12.7038 25.294C12.8296 25.4199 12.9946 25.4828 13.1596 25.4828C13.3245 25.4828 13.4895 25.4199 13.6153 25.294L15.3175 23.5918V26.111C15.3175 26.3419 15.1297 26.5297 14.8988 26.5297H11.0727C10.8418 26.5297 10.654 26.3418 10.654 26.111V22.2849H10.654Z" fill="#FFD600"/>
<path d="M19.5137 23.5537C19.1577 23.5537 18.8691 23.8423 18.8691 24.1982C18.8691 24.5542 19.1577 24.8428 19.5137 24.8428H22.4623C22.8183 24.8428 23.1068 24.5542 23.1068 24.1982C23.1068 23.8423 22.8183 23.5537 22.4623 23.5537H19.5137Z" fill="#151515"/>
<path d="M9.3649 35.3966C9.3649 36.3383 10.131 37.1043 11.0727 37.1043H14.8988C15.8404 37.1043 16.6065 36.3382 16.6065 35.3966V31.5705C16.6065 30.6288 15.8404 29.8628 14.8988 29.8628H11.0727C10.1309 29.8628 9.3649 30.6289 9.3649 31.5705V35.3966ZM10.654 31.5705C10.654 31.3395 10.8418 31.1518 11.0727 31.1518H14.8988C15.1296 31.1518 15.3175 31.3396 15.3175 31.5705V35.3965C15.3175 35.6274 15.1296 35.8152 14.8988 35.8152H11.0727C10.8417 35.8152 10.654 35.6273 10.654 35.3965V31.5705Z" fill="#FFD600"/>
<path d="M40.6863 15.0775C40.6838 14.4544 40.441 13.6861 39.8753 13.1218C38.8478 12.0321 36.8457 12.0428 35.7962 13.2914V5.45617C35.7962 3.99291 34.6057 2.80242 33.1424 2.80242H27.0096V1.53596C27.0097 0.689047 26.3206 0 25.4737 0H13.6364C12.7895 0 12.1004 0.689047 12.1004 1.53596V2.80242H5.96735C4.50409 2.80242 3.3136 3.99291 3.3136 5.45617V41.3462C3.3136 42.8095 4.50409 44 5.96735 44H33.1425C34.6058 44 35.7963 42.8095 35.7963 41.3462V24.198C35.7963 23.8421 35.5078 23.5535 35.1517 23.5535C34.7957 23.5535 34.5072 23.8421 34.5072 24.198V41.3462C34.5072 42.0987 33.895 42.7109 33.1425 42.7109H5.96735C5.21488 42.7109 4.60266 42.0987 4.60266 41.3462V5.45617C4.60266 4.7037 5.21488 4.09148 5.96735 4.09148H9.76072V5.43529C9.72273 7.00494 11.2923 8.43752 12.9566 8.11276L18.9029 7.05478C19.3315 6.97855 19.7661 6.97855 20.1944 7.05461L26.1541 8.11345C27.646 8.44577 29.4101 7.10402 29.3494 5.43589V4.09148H31.9395V17.1486L21.1678 27.9207C20.5475 28.5026 20.04 29.2045 19.7582 30.1727L18.8925 33.3124C18.8685 33.5866 18.8879 34.2215 19.6852 34.1051L22.8241 33.2396C23.6094 33.0398 24.4849 32.4819 25.0768 31.8315L31.9393 24.9685V39.9798C31.9393 40.0694 31.8664 40.1423 31.7768 40.1423H7.33375C7.24421 40.1423 7.17133 40.0694 7.17133 39.9798V6.48691C7.17133 6.13095 6.88275 5.84238 6.5268 5.84238C6.17085 5.84238 5.88227 6.13095 5.88227 6.48691V39.9798C5.88227 40.7802 6.53342 41.4313 7.33375 41.4313H31.777C32.5773 41.4313 33.2285 40.7802 33.2285 39.9798V23.6794L39.876 17.0319H39.876C40.3207 16.6122 40.6946 15.8024 40.6863 15.0775V15.0775ZM13.3894 1.53596C13.3894 1.39984 13.5002 1.28906 13.6364 1.28906H25.4737C25.6098 1.28906 25.7206 1.39984 25.7206 1.53596V2.80242H13.3894V1.53596ZM28.0602 5.4358C28.0732 6.20727 27.3011 7.0143 26.3795 6.84415L20.4198 5.78531C20.131 5.73401 19.84 5.70831 19.549 5.70831C19.2577 5.70831 18.9663 5.73401 18.677 5.78548L12.7308 6.84355C11.9733 6.99153 11.0436 6.37227 11.0498 5.43529V4.09166H28.0602V5.4358ZM38.9643 16.1201L37.0601 18.0244L34.9733 15.9375L36.8776 14.0332C37.3823 13.527 38.341 13.4137 38.9635 14.0332C39.4315 14.5025 39.6181 15.4732 38.9643 16.1201V16.1201ZM24.621 30.4642L22.5342 28.3774L34.0619 16.8492L36.1487 18.936L24.621 30.4642ZM33.2284 4.09587C33.9409 4.14055 34.5072 4.73275 34.5072 5.45626V14.5804L33.2284 15.8595V4.09587ZM21.0008 30.5155C21.0451 30.4101 21.136 29.9073 21.6341 29.3003L23.6973 31.3635C23.2136 31.9148 21.1816 32.3381 20.437 32.5606L21.0008 30.5155Z" fill="#151515"/>
<path d="M17.2055 11.4554C16.9538 11.2036 16.5457 11.2037 16.294 11.4554L16.0278 11.7217C15.7264 11.4551 15.3318 11.2917 14.8988 11.2917H11.0727C10.1309 11.2917 9.3649 12.0578 9.3649 12.9995V16.8256C9.3649 17.7672 10.131 18.5333 11.0727 18.5333H14.8988C15.8404 18.5333 16.6065 17.7672 16.6065 16.8256V12.9995C16.6065 12.9887 16.6051 12.9782 16.6049 12.9676L17.2056 12.3669C17.4573 12.1152 17.4573 11.7071 17.2055 11.4554V11.4554ZM15.3175 16.8256C15.3175 17.0564 15.1296 17.2443 14.8988 17.2443H11.0727C10.8417 17.2443 10.654 17.0564 10.654 16.8256V12.9995C10.654 12.7685 10.8418 12.5808 11.0727 12.5808H14.8988C14.9759 12.5808 15.0474 12.6032 15.1096 12.6398L13.1594 14.59L12.7025 14.1331C12.4508 13.8814 12.0427 13.8814 11.7911 14.1331C11.5394 14.3849 11.5394 14.793 11.7911 15.0446L12.7037 15.9573C12.8296 16.0832 12.9946 16.1461 13.1595 16.1461C13.3244 16.1461 13.4894 16.0832 13.6152 15.9573L15.3175 14.255V16.8256Z" fill="#FFD600"/>
</g>
<defs>
<clipPath id="clip0_34_260">
<rect width="44" height="44" fill="white"/>
</clipPath>
</defs>
</svg>
