<svg width="50" height="50" viewBox="0 0 50 50" fill="none" xmlns="http://www.w3.org/2000/svg">
<path d="M31.0468 22.2225H19.2494C18.9306 22.2225 18.6422 22.0317 18.5182 21.7379L15.6658 14.9918C15.5823 14.7943 15.5823 14.5708 15.6658 14.3733L18.5182 7.62717C18.6422 7.33335 18.9306 7.14307 19.2494 7.14307H30.658C30.9677 7.14307 31.2493 7.32336 31.3787 7.60492L34.361 14.0913C34.4495 14.2825 34.4577 14.5013 34.3846 14.698L31.7906 21.7034C31.6762 22.0154 31.3787 22.2225 31.0468 22.2225V22.2225ZM19.7752 20.6348H30.4945L32.7815 14.4555L30.1494 8.73025H19.7752L17.2585 14.6825L19.7752 20.6348Z" fill="#151515"/>
<path d="M27.7312 8.73028H22.9696C22.5309 8.73028 22.1758 8.37515 22.1758 7.93646V4.76208C22.1758 4.32339 22.5309 3.96826 22.9696 3.96826H27.7312C28.1699 3.96826 28.525 4.32339 28.525 4.76208V7.93646C28.525 8.37515 28.1699 8.73028 27.7312 8.73028ZM23.763 7.14309H26.9378V5.55545H23.763V7.14309Z" fill="#151515"/>
<path d="M25.3501 5.55538C24.9119 5.55538 24.5568 5.20025 24.5568 4.76201V0.79382C24.5568 0.35513 24.9119 0 25.3501 0C25.7888 0 26.1439 0.35513 26.1439 0.79382V4.76201C26.1439 5.20025 25.7888 5.55538 25.3501 5.55538Z" fill="#151515"/>
<path d="M40.5848 40.2983C40.4499 40.2983 40.3132 40.2638 40.1888 40.1916L25.1326 31.4909L10.0246 40.1852C9.6449 40.4023 9.15943 40.2724 8.94054 39.8932C8.72165 39.5136 8.85244 39.0281 9.23255 38.8092L24.737 29.8869C24.9823 29.7452 25.2852 29.7466 25.5299 29.8878L40.9822 38.8174C41.3618 39.0367 41.4922 39.5222 41.2724 39.9014C41.1257 40.1562 40.8591 40.2983 40.5848 40.2983V40.2983Z" fill="#151515"/>
<path d="M25.1616 33.9726C23.0381 33.9726 21.3741 32.2569 21.3741 30.0661C21.3741 28.2505 22.7883 26.6288 24.5567 26.2451V21.4286C24.5567 20.9899 24.9118 20.6348 25.3501 20.6348C25.7887 20.6348 26.1439 20.9899 26.1439 21.4286V26.9531C26.1439 27.3918 25.7887 27.7469 25.3501 27.7469C24.2461 27.7469 22.9613 28.7601 22.9613 30.0666C22.9613 31.3672 23.9282 32.3858 25.1616 32.3858C26.4613 32.3858 27.5194 31.3781 27.5194 30.1406C27.5194 29.7019 27.8746 29.3468 28.3128 29.3468C28.7515 29.3468 29.1066 29.7019 29.1066 30.1406C29.1071 32.2537 27.3373 33.9726 25.1616 33.9726V33.9726Z" fill="#151515"/>
<path d="M46.7788 49.9999H3.12817C2.68948 49.9999 2.33435 49.6448 2.33435 49.2065V46.8255C2.33435 46.3868 2.68948 46.0317 3.12817 46.0317H6.30254V43.6507H3.12817C2.68948 43.6507 2.33435 43.2956 2.33435 42.8573V39.6825C2.33435 39.2443 2.68948 38.8892 3.12817 38.8892H46.7788C47.2174 38.8892 47.5726 39.2443 47.5726 39.6825V42.8573C47.5726 43.2956 47.2174 43.6507 46.7788 43.6507H43.6044V46.0317H46.7788C47.2174 46.0317 47.5726 46.3868 47.5726 46.8255V49.2065C47.5726 49.6448 47.2174 49.9999 46.7788 49.9999ZM3.92154 48.4127H45.9854V47.6194H42.8106C42.3723 47.6194 42.0172 47.2642 42.0172 46.8255V42.8573C42.0172 42.4187 42.3723 42.0635 42.8106 42.0635H45.9854V40.4763H3.92154V42.0635H7.09636C7.53505 42.0635 7.89018 42.4187 7.89018 42.8573V46.8255C7.89018 47.2642 7.53505 47.6194 7.09636 47.6194H3.92154V48.4127ZM38.8424 47.6194H31.6993C31.2611 47.6194 30.906 47.2642 30.906 46.8255V42.8573C30.906 42.4187 31.2611 42.0635 31.6993 42.0635H38.8424C39.2811 42.0635 39.6362 42.4187 39.6362 42.8573V46.8255C39.6362 47.2642 39.2811 47.6194 38.8424 47.6194ZM32.4932 46.0317H38.0485V43.6507H32.4932V46.0317ZM27.7312 47.6194H21.382C20.9437 47.6194 20.5886 47.2642 20.5886 46.8255V42.8573C20.5886 42.4187 20.9437 42.0635 21.382 42.0635H27.7312C28.1698 42.0635 28.525 42.4187 28.525 42.8573V46.8255C28.525 47.2642 28.1698 47.6194 27.7312 47.6194ZM22.1758 46.0317H26.9378V43.6507H22.1758V46.0317ZM17.4138 47.6194H11.0646C10.6263 47.6194 10.2712 47.2642 10.2712 46.8255V42.8573C10.2712 42.4187 10.6263 42.0635 11.0646 42.0635H17.4138C17.8524 42.0635 18.2076 42.4187 18.2076 42.8573V46.8255C18.2076 47.2642 17.8524 47.6194 17.4138 47.6194ZM11.8584 46.0317H16.6204V43.6507H11.8584V46.0317Z" fill="#FFD600"/>
<path d="M28.1876 19.3121C28.09 19.3121 27.9901 19.2944 27.8942 19.2553C27.4873 19.0937 27.288 18.6323 27.451 18.2245L28.8388 14.7376L27.0459 11.4956C26.8338 11.1119 26.9728 10.6287 27.3561 10.4166C27.743 10.2031 28.2226 10.3444 28.4351 10.7263L30.4101 14.2976C30.5255 14.506 30.5409 14.7549 30.4524 14.9761L28.9247 18.8117C28.8016 19.1227 28.5032 19.3121 28.1876 19.3121Z" fill="#FFD600"/>
</svg>
