<?xml version="1.0" encoding="utf-8"?><svg xmlns="http://www.w3.org/2000/svg" xmlns:xlink="http://www.w3.org/1999/xlink"><symbol viewBox="0 0 21 10" id="arrow-right" xmlns="http://www.w3.org/2000/svg"><path d="M20.46 5.46a.65.65 0 000-.92L16.323.404a.65.65 0 10-.92.919L19.082 5l-3.677 3.677a.65.65 0 00.919.92L20.46 5.46zM0 5.65h20v-1.3H0v1.3z"/></symbol><symbol viewBox="0 0 22 24" id="basket" xmlns="http://www.w3.org/2000/svg"><g clip-path="url(#ba)"><path d="M10.363 18.443a2.046 2.046 0 00-2.045 2.042 2.046 2.046 0 004.09 0 2.046 2.046 0 00-2.045-2.042zm6.134 0a2.046 2.046 0 00-2.045 2.042 2.046 2.046 0 004.089 0 2.046 2.046 0 00-2.044-2.042zm3.978-8.199L7.413 6.891a.614.614 0 00-.75.73L8.67 16.4h-.786L5.482 5.895a.613.613 0 00-.474-.464l-4.27-.882A.614.614 0 00.489 5.75l3.885.802L6.797 17.15a.613.613 0 00.598.477h12.07a.615.615 0 00.607-.53l.858-6.175a.613.613 0 00-.455-.678zm-8.14 3.91a.613.613 0 01-1.227 0v-2.696a.613.613 0 011.227 0v2.696zm2.625 0a.613.613 0 01-1.227 0v-1.88a.613.613 0 011.227 0v1.88zm2.625 0a.613.613 0 01-1.227 0v-1.226a.613.613 0 011.227 0v1.226z"/></g><path fill-rule="evenodd" clip-rule="evenodd" d="M16.268 4.568a2.996 2.996 0 00-1.693-.523c-.627 0-1.21.193-1.693.523-.28-.843-.492-1.752-.492-2.383C12.39.98 13.37 0 14.575 0s2.185.98 2.185 2.185c0 .631-.212 1.54-.492 2.383zm-4.722 2.274l.024.006v-.011l-.024.005zm4.972 1.217c-1.333-.33-2.766-.681-4.129-1.013a2.185 2.185 0 114.129 1.013zm4.436 1.103c-.866-.217-2.155-.538-3.618-.9a2.995 2.995 0 00.243-1.425c.87.18 1.762.45 2.308.765.596.344.969.928 1.067 1.56zM9.869 6.439c-.36-.086-.706-.167-1.03-.243a2.19 2.19 0 01-.376-2.667 2.188 2.188 0 013.147-.7c.098.738.338 1.599.61 2.353a3.01 3.01 0 00-.449.774c-.628.113-1.305.278-1.902.483zm10.124.075a3.43 3.43 0 01-.217.114c-.696-.295-1.587-.526-2.397-.672a3.01 3.01 0 00-.449-.774c.262-.727.494-1.553.599-2.273.095-.067.189-.128.278-.18a2.188 2.188 0 012.986.8 2.188 2.188 0 01-.8 2.985z"/><defs><clipPath id="ba"><path transform="translate(0 3.064)" d="M0 0h20.936v20.936H0z"/></clipPath></defs></symbol><symbol viewBox="0 0 30 30" id="calculator" xmlns="http://www.w3.org/2000/svg"><path d="M27 0H3c-.75 0-1.5.6-1.5 1.5v27c0 .9.6 1.5 1.5 1.5h24c.9 0 1.5-.6 1.5-1.5v-27C28.5.6 27.75 0 27 0zM7.5 27h-3v-3h3v3zm0-6h-3v-3h3v3zm0-6h-3v-3h3v3zm6 12h-3v-3h3v3zm0-6h-3v-3h3v3zm0-6h-3v-3h3v3zm6 12h-3v-3h3v3zm0-6h-3v-3h3v3zm0-6h-3v-3h3v3zm6 12h-3v-9h3v9zm0-12h-3v-3h3v3zm0-6h-21V3h21v6z"/></symbol><symbol viewBox="0 0 30 30" id="chat" xmlns="http://www.w3.org/2000/svg"><g clip-path="url(#da)"><path d="M13.125 0C5.888 0 .001 4.796.001 10.689c0 2.985 1.5 5.784 4.147 7.797-.875 1.367-2.008 2.75-3.436 3.103a.938.938 0 00.187 1.847c.02 0 .101.004.236.004.97 0 4.712-.156 8.959-2.359.973.197 1.99.295 3.031.295 7.236 0 13.125-4.794 13.125-10.687S20.36 0 13.125 0z"/><path d="M29.287 28.081c-1.194-.294-2.098-1.168-2.73-2.034 2.2-1.723 3.442-4.093 3.442-6.619 0-2.114-.888-4.059-2.364-5.613-1.667 5.417-7.53 9.435-14.51 9.435a17.71 17.71 0 01-2.746-.212c-.533.256-1.054.483-1.566.686 1.892 2.906 5.634 4.892 9.937 4.892.88 0 1.732-.081 2.542-.239 2.69 1.37 5.145 1.624 6.589 1.622a8.93 8.93 0 001.333-.084.936.936 0 00.073-1.834z"/></g><defs><clipPath id="da"><path d="M0 0h30v30H0z"/></clipPath></defs></symbol><symbol viewBox="0 0 24 24" id="chevron-right" xmlns="http://www.w3.org/2000/svg"><path d="M8.59 16.59L13.17 12 8.59 7.41 10 6l6 6-6 6-1.41-1.41z"/></symbol><symbol viewBox="0 0 20 20" id="instagram" xmlns="http://www.w3.org/2000/svg"><g clip-path="url(#fa)"><path d="M10.003 4.865a5.131 5.131 0 100 10.264 5.131 5.131 0 100-10.264zm0 8.463a3.33 3.33 0 113.33-3.33 3.33 3.33 0 01-3.33 3.33z"/><path d="M14.123.064c-1.84-.086-6.397-.082-8.239 0C4.266.14 2.838.53 1.688 1.68-.236 3.605.01 6.196.01 9.997c0 3.89-.217 6.422 1.678 8.316 1.93 1.93 4.56 1.678 8.315 1.678 3.854 0 5.184.002 6.546-.526 1.853-.719 3.251-2.375 3.388-5.349.086-1.84.081-6.397 0-8.239-.165-3.51-2.05-5.64-5.814-5.813zm2.913 16.977c-1.26 1.26-3.01 1.148-7.057 1.148-4.166 0-5.837.061-7.056-1.161-1.405-1.397-1.15-3.642-1.15-7.044 0-4.604-.473-7.92 4.148-8.157 1.062-.037 1.374-.05 4.047-.05l.037.025c4.44 0 7.925-.465 8.134 4.155.048 1.054.059 1.371.059 4.04-.001 4.118.077 5.799-1.162 7.044z"/><path d="M15.338 5.862a1.2 1.2 0 100-2.398 1.2 1.2 0 000 2.398z"/></g><defs><clipPath id="fa"><path d="M0 0h20v20H0z"/></clipPath></defs></symbol><symbol viewBox="0 0 30 30" id="tell" xmlns="http://www.w3.org/2000/svg"><g clip-path="url(#ga)"><path d="M22.808 19.846c-.98-.968-2.204-.968-3.177 0a185.79 185.79 0 00-2.217 2.222c-.2.206-.368.25-.612.112-.48-.262-.992-.474-1.454-.761-2.154-1.355-3.958-3.097-5.556-5.057-.793-.974-1.498-2.016-1.991-3.19-.1-.237-.082-.393.112-.587.743-.718 1.467-1.454 2.197-2.19 1.018-1.025 1.018-2.223-.006-3.253-.58-.587-1.161-1.161-1.742-1.748-.599-.6-1.192-1.205-1.798-1.798-.98-.955-2.203-.955-3.177.006-.75.737-1.467 1.492-2.229 2.216C.453 6.486.097 7.304.022 8.26c-.119 1.555.262 3.022.8 4.451 1.098 2.96 2.77 5.587 4.8 7.997 2.74 3.259 6.012 5.837 9.838 7.697 1.723.837 3.509 1.48 5.45 1.586 1.336.075 2.497-.262 3.427-1.305.637-.711 1.355-1.36 2.03-2.041.998-1.011 1.004-2.235.012-3.234a960.065 960.065 0 00-3.571-3.564zm-1.192-4.976l2.303-.393a10.296 10.296 0 00-2.878-5.556 10.24 10.24 0 00-5.868-2.928l-.325 2.316a7.945 7.945 0 014.545 2.266 7.944 7.944 0 012.223 4.295zm3.602-10.013A16.986 16.986 0 0015.479 0l-.325 2.316a14.728 14.728 0 018.416 4.195 14.716 14.716 0 014.126 7.96L30 14.077a17.11 17.11 0 00-4.782-9.22z"/></g><defs><clipPath id="ga"><path d="M0 0h30v30H0z"/></clipPath></defs></symbol><symbol viewBox="0 0 20 20" id="vk" xmlns="http://www.w3.org/2000/svg"><g clip-path="url(#ha)"><path d="M16.596 10.856c-.323-.408-.231-.59 0-.955.004-.004 2.673-3.692 2.948-4.943l.002-.001c.137-.456 0-.791-.661-.791h-2.187c-.556 0-.813.288-.95.61 0 0-1.114 2.664-2.689 4.392-.508.499-.743.659-1.02.659-.137 0-.35-.16-.35-.616V4.957c0-.547-.156-.791-.617-.791H7.634c-.349 0-.557.255-.557.493 0 .518.788.637.87 2.095V9.92c0 .693-.126.82-.405.82-.744 0-2.548-2.675-3.617-5.738-.216-.594-.427-.834-.987-.834H.75c-.624 0-.75.287-.75.609 0 .568.743 3.394 3.457 7.127 1.808 2.549 4.355 3.93 6.671 3.93 1.393 0 1.563-.307 1.563-.835 0-2.434-.126-2.664.571-2.664.324 0 .88.16 2.18 1.389 1.486 1.457 1.73 2.11 2.562 2.11h2.187c.623 0 .939-.307.757-.912-.416-1.272-3.226-3.89-3.352-4.065z"/></g><defs><clipPath id="ha"><path d="M0 0h20v20H0z"/></clipPath></defs></symbol><symbol viewBox="0 0 20 20" id="yt" xmlns="http://www.w3.org/2000/svg"><path d="M18.979 5.314a2.35 2.35 0 00-1.653-1.653C15.86 3.26 9.99 3.26 9.99 3.26s-5.869 0-7.336.386A2.397 2.397 0 001 5.314C.615 6.781.615 9.824.615 9.824s0 3.058.386 4.51a2.35 2.35 0 001.653 1.652c1.483.402 7.336.402 7.336.402s5.87 0 7.336-.387a2.35 2.35 0 001.653-1.652c.386-1.467.386-4.51.386-4.51s.016-3.058-.386-4.525zM8.12 12.634v-5.62L13 9.824l-4.88 2.812z"/></symbol><symbol viewBox="0 0 20 20" id="zoom" xmlns="http://www.w3.org/2000/svg"><path d="M9.167 15.833a6.667 6.667 0 100-13.333 6.667 6.667 0 000 13.333zM17.5 17.5l-3.625-3.625"/></symbol></svg>