<svg width="30" height="30" viewBox="0 0 30 30" fill="none" xmlns="http://www.w3.org/2000/svg">
<path d="M27 0H3C2.25 0 1.5 0.6 1.5 1.5V28.5C1.5 29.4 2.1 30 3 30H27C27.9 30 28.5 29.4 28.5 28.5V1.5C28.5 0.6 27.75 0 27 0ZM7.5 27H4.5V24H7.5V27ZM7.5 21H4.5V18H7.5V21ZM7.5 15H4.5V12H7.5V15ZM13.5 27H10.5V24H13.5V27ZM13.5 21H10.5V18H13.5V21ZM13.5 15H10.5V12H13.5V15ZM19.5 27H16.5V24H19.5V27ZM19.5 21H16.5V18H19.5V21ZM19.5 15H16.5V12H19.5V15ZM25.5 27H22.5V18H25.5V27ZM25.5 15H22.5V12H25.5V15ZM25.5 9H4.5V3H25.5V9Z" fill="white"/>
</svg>
