<svg width="30" height="30" viewBox="0 0 30 30" fill="none" xmlns="http://www.w3.org/2000/svg">
<g clip-path="url(#clip0_34_514)">
<path d="M13.1254 0.000854492C5.88833 0.000854492 0.00115944 4.79496 0.00115944 10.6877C0.00115944 13.6726 1.50107 16.4718 4.14842 18.4854C3.27285 19.8522 2.14041 21.2359 0.711744 21.5884C0.259895 21.7009 -0.0419631 22.1284 0.00490923 22.5914C0.0517816 23.0564 0.432385 23.4145 0.899234 23.4352C0.919857 23.4352 1.00048 23.4389 1.13547 23.4389C2.10479 23.4389 5.84708 23.2833 10.0937 21.0803C11.0668 21.2771 12.0849 21.3746 13.1254 21.3746C20.3606 21.3746 26.2497 16.5805 26.2497 10.6877C26.2497 4.79496 20.3606 0.000854492 13.1254 0.000854492Z" fill="white"/>
<path d="M29.287 28.0811C28.0926 27.7868 27.1889 26.9131 26.5571 26.0469C28.7564 24.3238 29.9994 21.954 29.9994 19.4285C29.9994 17.3136 29.1107 15.3694 27.6352 13.8151C25.9684 19.2316 20.1056 23.2495 13.1254 23.2495C12.1935 23.2495 11.273 23.1783 10.3786 23.0377C9.84618 23.2945 9.32496 23.5214 8.81311 23.7239C10.7049 26.63 14.4472 28.6155 18.75 28.6155C19.6294 28.6155 20.4824 28.5349 21.2924 28.3774C23.9829 29.7479 26.4371 30.001 27.8808 29.9991C28.672 29.9991 29.1595 29.9242 29.2138 29.9148C29.6526 29.8435 29.9807 29.4723 29.9994 29.028C30.0163 28.5836 29.7201 28.1861 29.287 28.0811Z" fill="white"/>
</g>
<defs>
<clipPath id="clip0_34_514">
<rect width="30" height="30" fill="white"/>
</clipPath>
</defs>
</svg>
