<svg width="20" height="20" viewBox="0 0 20 20" fill="none" xmlns="http://www.w3.org/2000/svg">
<g clip-path="url(#clip0_37_1402)">
<path d="M10.0034 4.86523C7.16754 4.86523 4.8717 7.16357 4.8717 9.9969C4.8717 12.8327 7.17004 15.1286 10.0034 15.1286C12.8392 15.1286 15.135 12.8302 15.135 9.9969C15.135 7.16107 12.8367 4.86523 10.0034 4.86523ZM10.0034 13.3277C8.16254 13.3277 6.67254 11.8369 6.67254 9.9969C6.67254 8.1569 8.16337 6.66607 10.0034 6.66607C11.8434 6.66607 13.3342 8.1569 13.3342 9.9969C13.335 11.8369 11.8442 13.3277 10.0034 13.3277Z" fill="#898886"/>
<path d="M14.1234 0.0637988C12.2834 -0.0220346 7.7259 -0.0178679 5.88423 0.0637988C4.2659 0.139632 2.8384 0.530465 1.68757 1.6813C-0.235766 3.60463 0.0100673 6.1963 0.0100673 9.99713C0.0100673 13.8871 -0.206599 16.4188 1.68757 18.313C3.6184 20.243 6.24757 19.9905 10.0034 19.9905C13.8567 19.9905 15.1867 19.993 16.5492 19.4655C18.4017 18.7463 19.8001 17.0905 19.9367 14.1163C20.0234 12.2755 20.0184 7.7188 19.9367 5.87713C19.7717 2.3663 17.8876 0.237132 14.1234 0.0637988ZM17.0359 17.0405C15.7751 18.3013 14.0259 18.1888 9.97923 18.1888C5.81257 18.1888 4.14173 18.2505 2.92257 17.028C1.5184 15.6305 1.77257 13.3863 1.77257 9.9838C1.77257 5.37963 1.30007 2.0638 5.9209 1.82713C6.98257 1.78963 7.29507 1.77713 9.96757 1.77713L10.0051 1.80213C14.4459 1.80213 17.9301 1.33713 18.1392 5.95713C18.1867 7.0113 18.1976 7.32797 18.1976 9.9963C18.1967 14.1146 18.2751 15.7955 17.0359 17.0405Z" fill="#898886"/>
<path d="M15.3383 5.86219C16.0006 5.86219 16.5375 5.32531 16.5375 4.66303C16.5375 4.00075 16.0006 3.46387 15.3383 3.46387C14.676 3.46387 14.1392 4.00075 14.1392 4.66303C14.1392 5.32531 14.676 5.86219 15.3383 5.86219Z" fill="#898886"/>
</g>
<defs>
<clipPath id="clip0_37_1402">
<rect width="20" height="20" fill="white"/>
</clipPath>
</defs>
</svg>
